<?xml version="1.0" standalone="no"?>
<!DOCTYPE svg PUBLIC "-//W3C//DTD SVG 20010904//EN"
 "http://www.w3.org/TR/2001/REC-SVG-20010904/DTD/svg10.dtd">
<svg version="1.0" xmlns="http://www.w3.org/2000/svg"
 width="700.000000pt" height="700.000000pt" viewBox="0 0 700.000000 700.000000"
 preserveAspectRatio="xMidYMid meet">
<metadata>
Created by potrace 1.11, written by Peter Selinger 2001-2013
</metadata>
<g transform="translate(0.000000,700.000000) scale(0.100000,-0.100000)"
fill="#000000" stroke="none">
<path d="M4450 6754 c-364 -49 -700 -185 -992 -405 -125 -94 -2214 -2180
-2240 -2237 -70 -155 43 -332 212 -332 97 0 122 19 395 289 268 267 302 293
410 310 244 38 455 -168 424 -414 -16 -127 6 -101 -739 -850 -459 -461 -693
-703 -704 -729 -22 -47 -23 -139 -4 -186 49 -115 179 -171 303 -131 33 11 194
167 912 884 l871 870 -29 47 c-161 262 -247 641 -219 968 42 487 274 909 660
1201 289 220 630 333 1000 333 248 0 463 -46 683 -144 708 -317 1106 -1093
951 -1856 -56 -280 -203 -568 -398 -782 -319 -351 -767 -550 -1241 -550 -256
0 -504 61 -745 182 l-135 67 -649 -647 c-440 -439 -654 -660 -667 -687 -11
-24 -19 -63 -19 -96 0 -173 182 -289 335 -212 16 8 239 224 495 478 433 432
470 466 535 497 125 59 254 49 369 -27 63 -42 97 -83 134 -163 21 -47 26 -72
26 -142 1 -134 -28 -184 -209 -369 -82 -84 -152 -164 -160 -185 -21 -49 -19
-142 4 -191 56 -120 198 -169 317 -110 38 19 260 236 985 962 515 516 963 972
996 1013 185 231 325 514 397 805 77 312 77 655 1 980 -175 745 -777 1344
-1526 1519 -232 54 -515 70 -739 40z"/>
<path d="M4585 6229 c-350 -27 -676 -176 -936 -426 -513 -495 -613 -1279 -243
-1890 35 -58 64 -108 64 -112 0 -5 -399 -406 -887 -892 -487 -486 -877 -876
-867 -867 33 29 91 48 146 48 126 -1 228 -100 231 -224 2 -104 3 -102 -389
-496 -395 -397 -413 -421 -429 -545 -19 -153 69 -311 213 -382 51 -25 68 -28
157 -28 169 0 144 -19 690 524 258 258 480 473 491 479 78 41 182 33 252 -19
80 -58 115 -185 77 -276 -9 -20 -78 -100 -160 -184 -146 -150 -177 -194 -201
-284 -35 -130 7 -268 109 -362 118 -109 276 -130 422 -58 39 19 173 148 600
577 303 303 541 545 530 535 -11 -9 -47 -28 -80 -43 -51 -23 -74 -28 -150 -28
-82 -1 -96 2 -156 31 -79 39 -140 102 -177 181 -24 50 -27 70 -27 157 0 146
17 177 198 363 80 81 153 163 163 182 26 50 25 152 -3 205 -41 77 -120 125
-208 125 -97 0 -107 -9 -600 -499 -292 -290 -477 -467 -505 -483 -70 -38 -130
-51 -217 -47 -137 7 -246 81 -307 209 -28 59 -31 74 -31 160 0 169 -40 121
758 918 l693 693 80 -49 c358 -222 749 -292 1149 -206 377 81 726 317 938 633
368 547 350 1255 -44 1780 -311 413 -821 641 -1344 600z m-177 -583 c64 -23
1208 -686 1257 -729 66 -57 98 -130 98 -226 1 -66 -4 -87 -27 -134 -15 -31
-47 -73 -70 -94 -50 -43 -1198 -709 -1260 -731 -59 -20 -169 -12 -228 17 -60
29 -120 89 -150 149 l-23 47 -3 724 c-3 847 -8 797 91 895 38 37 79 68 107 78
56 21 155 23 208 4z m-715 -4346 c97 -37 160 -99 198 -198 20 -52 21 -64 11
-134 -13 -94 -39 -146 -99 -204 -93 -88 -245 -115 -355 -61 -97 48 -170 146
-184 250 -7 48 8 128 35 187 65 144 243 216 394 160z"/>
<path d="M4226 5497 c-21 -13 -49 -42 -62 -63 l-24 -39 0 -705 0 -705 23 -40
c33 -58 88 -87 157 -82 52 3 91 24 640 341 322 186 599 351 616 368 18 17 37
49 44 74 17 58 0 121 -44 162 -17 16 -294 182 -616 368 -547 316 -589 338
-640 341 -45 3 -62 0 -94 -20z"/>
<path d="M3502 1159 c-65 -32 -97 -87 -97 -164 0 -71 24 -115 84 -155 51 -35
143 -35 193 -1 123 84 114 263 -16 322 -54 25 -111 24 -164 -2z"/>
<path d="M924 4038 c-279 -282 -289 -297 -289 -453 0 -93 2 -105 32 -166 39
-79 102 -140 181 -177 49 -23 70 -27 152 -27 141 0 175 19 359 200 161 157
203 184 286 185 62 0 141 -35 177 -78 62 -74 74 -190 28 -270 -12 -20 126 113
307 297 212 215 334 347 346 373 39 85 14 205 -56 264 -73 61 -177 75 -258 34
-27 -14 -136 -114 -289 -265 -262 -259 -294 -283 -408 -305 -80 -16 -145 -9
-214 22 -75 35 -138 95 -178 170 -62 115 -52 264 24 377 19 28 34 51 32 51 -1
0 -106 -105 -232 -232z"/>
<path d="M277 3249 c-98 -23 -189 -105 -227 -205 -84 -224 119 -469 354 -425
245 45 351 320 200 519 -70 91 -210 139 -327 111z"/>
<path d="M694 2078 c-466 -469 -475 -479 -492 -590 -39 -250 176 -468 422
-428 127 21 135 27 611 502 l440 438 -74 -37 c-71 -37 -78 -38 -175 -38 -88 0
-108 3 -156 26 -71 33 -146 109 -179 179 -47 102 -38 254 20 345 16 25 27 45
26 45 -1 0 -201 -199 -443 -442z m221 -142 c138 -62 211 -195 185 -337 -13
-73 -29 -108 -77 -166 -67 -83 -230 -134 -329 -103 -63 20 -141 78 -178 134
-50 75 -62 130 -47 218 14 85 39 137 92 188 98 95 234 120 354 66z"/>
<path d="M704 1805 c-59 -30 -95 -79 -101 -139 -17 -149 129 -251 265 -185
138 67 130 265 -13 330 -54 25 -92 24 -151 -6z"/>
</g>
</svg>
