<svg width="1230" height="282" viewBox="0 0 1230 282" fill="none" xmlns="http://www.w3.org/2000/svg">
<path d="M491.956 144L483.376 120.132H440.164L431.584 144H411.772L452.488 34.8H471.052L511.612 144H491.956ZM477.448 103.284L465.436 70.524C463.876 66.572 462.68 62.88 461.848 59.448C461.016 62.464 459.82 66.156 458.26 70.524L446.092 103.284H477.448ZM578.359 144V98.292C578.359 85.916 573.419 79.728 563.539 79.728C552.723 79.728 547.315 85.812 547.315 97.98V144H529.063V64.284H547.315V71.772C552.515 65.532 559.535 62.412 568.375 62.412C576.695 62.412 583.455 65.012 588.655 70.212C593.959 75.412 596.611 83.68 596.611 95.016V144H578.359ZM636.255 50.244C634.175 52.324 631.627 53.364 628.611 53.364C625.595 53.364 622.995 52.324 620.811 50.244C618.731 48.06 617.691 45.46 617.691 42.444C617.691 39.428 618.731 36.88 620.811 34.8C622.995 32.72 625.595 31.68 628.611 31.68C631.627 31.68 634.175 32.72 636.255 34.8C638.335 36.88 639.375 39.428 639.375 42.444C639.375 45.46 638.335 48.06 636.255 50.244ZM619.407 144V64.284H637.659V144H619.407ZM754.745 144V98.292C754.745 85.916 750.221 79.728 741.173 79.728C736.493 79.728 732.801 81.34 730.097 84.564C727.497 87.684 726.197 92.364 726.197 98.604V144H707.945V98.292C707.945 85.916 703.421 79.728 694.373 79.728C689.693 79.728 686.001 81.34 683.297 84.564C680.697 87.684 679.397 92.364 679.397 98.604V144H661.145V64.284H679.397V71.616C683.973 65.48 690.473 62.412 698.897 62.412C708.673 62.412 715.641 66.156 719.801 73.644C724.897 66.156 732.905 62.412 743.825 62.412C752.769 62.412 759.841 64.908 765.041 69.9C770.345 74.788 772.997 82.536 772.997 93.144V144H754.745ZM828.581 145.872C817.245 145.872 808.249 142.18 801.593 134.796C795.041 127.308 791.765 117.064 791.765 104.064C791.765 91.168 795.093 81.028 801.749 73.644C808.405 66.156 817.349 62.412 828.581 62.412C838.773 62.412 847.093 65.584 853.541 71.928C860.093 78.272 863.369 87.58 863.369 99.852C863.369 104.116 863.161 107.86 862.745 111.084H809.861C810.173 116.7 812.097 121.224 815.633 124.656C819.273 128.088 823.589 129.804 828.581 129.804C835.653 129.804 841.269 127.048 845.429 121.536L856.973 133.392C850.005 141.712 840.541 145.872 828.581 145.872ZM810.017 95.952H845.273C844.857 90.232 843.089 85.916 839.969 83.004C836.849 79.988 833.053 78.48 828.581 78.48C823.381 78.48 819.065 79.936 815.633 82.848C812.305 85.656 810.433 90.024 810.017 95.952ZM956.786 145.872C946.802 145.872 938.17 143.376 930.89 138.384C923.714 133.288 918.618 126.372 915.602 117.636L932.918 111.24C935.206 116.336 938.482 120.444 942.746 123.564C947.01 126.58 951.898 128.088 957.41 128.088C963.13 128.088 967.654 126.788 970.982 124.188C974.414 121.588 976.13 117.844 976.13 112.956C976.13 110.98 975.662 109.16 974.726 107.496C973.79 105.728 972.698 104.272 971.45 103.128C970.306 101.984 968.538 100.84 966.146 99.696C963.754 98.552 961.726 97.668 960.062 97.044C958.398 96.316 955.954 95.432 952.73 94.392C948.57 92.936 945.346 91.792 943.058 90.96C940.874 90.128 938.014 88.776 934.478 86.904C931.046 84.928 928.394 82.952 926.522 80.976C924.754 79 923.142 76.4 921.686 73.176C920.334 69.848 919.658 66.208 919.658 62.256C919.658 53.936 922.882 46.968 929.33 41.352C935.778 35.736 944.514 32.928 955.538 32.928C964.69 32.928 972.282 35.112 978.314 39.48C984.346 43.744 988.402 49.36 990.482 56.328L973.634 61.944C970.306 54.456 963.858 50.712 954.29 50.712C949.402 50.712 945.554 51.752 942.746 53.832C940.042 55.808 938.69 58.668 938.69 62.412C938.69 64.908 939.73 67.144 941.81 69.12C943.994 71.096 946.282 72.604 948.674 73.644C951.17 74.58 954.81 75.828 959.594 77.388C962.714 78.532 965.054 79.416 966.614 80.04C968.278 80.56 970.566 81.496 973.478 82.848C976.39 84.2 978.678 85.448 980.342 86.592C982.006 87.632 983.878 89.088 985.958 90.96C988.142 92.832 989.806 94.808 990.95 96.888C992.094 98.864 993.082 101.256 993.914 104.064C994.746 106.768 995.162 109.732 995.162 112.956C995.162 123.148 991.522 131.208 984.242 137.136C977.066 142.96 967.914 145.872 956.786 145.872ZM1085.38 144H1065.42L1042.64 100.008L1033.75 108.744V144H1015.5V39.948L1033.75 31.368V87.372L1056.21 64.284H1078.36L1055.74 86.904L1085.38 144ZM1119.49 50.244C1117.41 52.324 1114.86 53.364 1111.85 53.364C1108.83 53.364 1106.23 52.324 1104.05 50.244C1101.97 48.06 1100.93 45.46 1100.93 42.444C1100.93 39.428 1101.97 36.88 1104.05 34.8C1106.23 32.72 1108.83 31.68 1111.85 31.68C1114.86 31.68 1117.41 32.72 1119.49 34.8C1121.57 36.88 1122.61 39.428 1122.61 42.444C1122.61 45.46 1121.57 48.06 1119.49 50.244ZM1102.64 144V64.284H1120.89V144H1102.64ZM1180.73 145.872C1173.03 145.872 1167 143.116 1162.63 137.604V166.932L1144.38 175.356V64.284H1162.63V70.368C1167 65.064 1173.08 62.412 1180.88 62.412C1190.97 62.412 1198.93 66.104 1204.75 73.488C1210.68 80.768 1213.64 91.012 1213.64 104.22C1213.64 117.116 1210.63 127.308 1204.6 134.796C1198.56 142.18 1190.61 145.872 1180.73 145.872ZM1178.08 128.4C1183.59 128.4 1187.85 126.32 1190.87 122.16C1193.88 118 1195.39 112.02 1195.39 104.22C1195.39 96.836 1193.88 90.908 1190.87 86.436C1187.85 81.964 1183.59 79.728 1178.08 79.728C1171.32 79.728 1166.17 82.328 1162.63 87.528V120.6C1166.27 125.8 1171.42 128.4 1178.08 128.4Z" fill="white"/>
<path d="M489.79 183.16L485.38 178.93C484.03 179.2 480.79 179.47 479.08 179.47H427.42C424.09 179.47 420.31 179.11 417.16 178.66V186.85C420.67 186.49 424.09 186.31 427.42 186.31H478.72C475.75 191.89 467.29 201.7 459.01 206.47L464.95 211.24C475.21 204.13 483.76 192.52 487.36 186.4C487.99 185.41 489.16 184.06 489.79 183.16ZM453.88 195.04H445.78C446.05 197.38 446.14 199.36 446.14 201.52C446.14 216.55 444.16 229.33 430.21 237.88C427.69 239.68 424.63 241.12 422.11 241.93L428.77 247.33C451.72 235.9 453.88 219.43 453.88 195.04ZM510.262 185.41V193.51C513.052 193.42 516.022 193.24 519.172 193.24H557.692C560.662 193.24 564.082 193.33 566.602 193.51V185.41C564.082 185.68 560.932 185.77 557.692 185.77H519.172C516.202 185.77 513.142 185.59 510.262 185.41ZM502.522 229.96V238.6C505.582 238.42 508.732 238.15 511.972 238.15H565.882C568.312 238.15 571.372 238.33 574.072 238.6V229.96C571.462 230.23 568.582 230.41 565.882 230.41H511.972C508.732 230.41 505.582 230.14 502.522 229.96ZM657.142 178.48L648.862 175.6C648.502 177.58 647.692 180.46 647.062 182.26C644.362 189.91 640.672 198.46 634.822 206.83C627.712 201.34 617.272 193.96 609.532 189.01L604.852 194.68C613.492 200.08 623.572 207.46 630.232 212.86C621.322 223.75 610.252 233.74 594.502 241.12L600.712 246.79C616.372 238.6 627.532 227.89 635.992 217.72C643.732 224.38 650.572 230.77 657.232 238.42L662.902 232.21C656.512 225.28 648.772 218.26 640.672 211.6C646.702 202.87 651.202 192.97 654.172 185.05C654.892 183.16 656.152 180.1 657.142 178.48Z" fill="white" fill-opacity="0.48"/>
<path d="M824.839 183.79L820.249 180.28C818.809 180.73 816.469 181 813.499 181H778.759C776.059 181 770.929 180.64 769.669 180.46V188.65C770.659 188.56 775.609 188.2 778.759 188.2H813.859C811.609 195.67 805.039 206.29 798.919 213.22C789.649 223.57 776.329 234.28 761.839 239.95L767.599 245.98C780.919 239.95 793.069 230.05 802.699 219.7C811.879 227.89 821.419 238.51 827.449 246.43L833.749 241.03C827.899 233.92 816.919 222.22 807.469 214.12C813.859 206.02 819.529 195.49 822.589 187.75C823.129 186.49 824.299 184.51 824.839 183.79ZM878.119 180.37C878.389 181.45 879.019 184.96 880.009 189.82C871.549 191.17 863.719 192.34 860.209 192.7C857.329 193.06 854.989 193.24 852.739 193.33L854.269 201.43C856.969 200.8 859.039 200.35 861.559 199.9C864.979 199.27 872.809 198.01 881.359 196.66C882.439 202.24 883.699 208.63 884.959 214.75C874.699 216.37 864.889 217.9 860.389 218.53C858.049 218.89 854.539 219.25 852.469 219.34L854.089 227.17C855.979 226.63 858.499 226.18 862.009 225.55C866.419 224.74 876.049 223.12 886.219 221.41C887.929 230.32 889.369 237.61 889.729 239.59C890.359 242.29 890.629 244.99 891.079 248.05L899.269 246.52C898.459 244 897.739 240.94 897.109 238.33C896.659 236.26 895.219 229.06 893.419 220.24C902.239 218.89 910.609 217.54 915.559 216.73C918.889 216.19 921.769 215.74 923.659 215.56L922.219 208C920.239 208.54 917.719 209.08 914.209 209.71C909.709 210.52 901.159 212.05 892.069 213.49C890.899 207.46 889.639 201.07 888.469 195.49C897.109 194.14 905.299 192.79 909.439 192.16C911.779 191.8 914.569 191.44 915.919 191.26L914.389 183.7C912.859 184.15 910.609 184.78 907.999 185.23C904.219 185.95 895.939 187.3 887.209 188.74C886.129 183.7 885.499 180.01 885.319 179.02C885.049 177.04 884.599 174.52 884.509 172.81L876.409 174.25C877.039 176.05 877.669 178.03 878.119 180.37ZM976.309 192.16L969.739 194.41C971.629 198.46 975.769 209.89 976.759 213.94L983.419 211.6C982.249 207.64 977.839 195.76 976.309 192.16ZM1008.89 197.2L1001.15 194.77C999.799 206.29 995.119 217.72 988.729 225.55C981.349 234.82 969.919 241.66 959.479 244.72L965.419 250.75C975.499 246.88 986.479 239.95 994.759 229.33C1001.24 221.23 1005.11 211.6 1007.54 201.7C1007.9 200.53 1008.26 199.09 1008.89 197.2ZM955.429 196.66L948.769 199.27C950.569 202.42 955.429 214.84 956.779 219.52L963.619 217C961.909 212.32 957.229 200.53 955.429 196.66ZM1095.29 179.38C1095.29 176.05 1097.99 173.35 1101.23 173.35C1104.56 173.35 1107.26 176.05 1107.26 179.38C1107.26 182.62 1104.56 185.32 1101.23 185.32C1097.99 185.32 1095.29 182.62 1095.29 179.38ZM1091.15 179.38C1091.15 180.37 1091.33 181.36 1091.6 182.26C1090.52 182.35 1089.53 182.35 1088.72 182.35H1043.54C1040.57 182.35 1037.06 182.08 1034.54 181.72V189.73C1036.88 189.64 1039.94 189.46 1043.54 189.46H1089.53C1088.36 198.1 1084.13 210.61 1077.74 218.8C1070.27 228.43 1060.1 236.08 1042.64 240.4L1048.76 247.15C1065.32 242.02 1076.03 233.65 1084.22 223.12C1091.33 213.85 1095.74 199.36 1097.63 189.91C1097.72 189.55 1097.81 189.19 1097.81 188.92C1098.89 189.28 1100.06 189.46 1101.23 189.46C1106.81 189.46 1111.4 184.96 1111.4 179.38C1111.4 173.8 1106.81 169.21 1101.23 169.21C1095.65 169.21 1091.15 173.8 1091.15 179.38Z" fill="white" fill-opacity="0.48"/>
<path fill-rule="evenodd" clip-rule="evenodd" d="M95.3591 35.4532C84.5649 35.4532 75.8145 44.2036 75.8145 54.9978V72.0967C75.5867 86.27 64.0263 97.6894 49.7987 97.6894C35.4287 97.6894 23.7795 109.339 23.7795 123.709C23.7795 138.079 35.4287 149.728 49.7987 149.728C64.0263 149.728 75.5867 161.147 75.8145 175.321V176.174C75.5867 190.347 64.0263 201.766 49.7987 201.766H26.7831C12.4131 201.766 0.763916 213.416 0.763916 227.786C0.763916 242.156 12.4131 253.805 26.7831 253.805H65.8959L75.8145 253.805H111.145C118.203 253.805 123.924 248.084 123.924 241.026V35.4532H95.3591Z" fill="#9A5EF0"/>
<path fill-rule="evenodd" clip-rule="evenodd" d="M95.3591 35.4532C84.5649 35.4532 75.8145 44.2036 75.8145 54.9978V72.0967C75.5867 86.27 64.0263 97.6894 49.7987 97.6894C35.4287 97.6894 23.7795 109.339 23.7795 123.709C23.7795 138.079 35.4287 149.728 49.7987 149.728C64.0263 149.728 75.5867 161.147 75.8145 175.321V176.174C75.5867 190.347 64.0263 201.766 49.7987 201.766H26.7831C12.4131 201.766 0.763916 213.416 0.763916 227.786C0.763916 242.156 12.4131 253.805 26.7831 253.805H65.8959L75.8145 253.805H111.145C118.203 253.805 123.924 248.084 123.924 241.026V35.4532H95.3591Z" fill="url(#paint0_linear)"/>
<path fill-rule="evenodd" clip-rule="evenodd" d="M95.359 35.4532C84.5649 35.4532 75.8145 44.2036 75.8145 54.9978V72.0973C75.672 80.9547 71.1035 88.7366 64.2241 93.3279C64.1706 93.3763 64.1053 93.4247 64.0276 93.473C53.9306 99.7555 47.2095 110.953 47.2095 123.72C47.2095 136.162 53.5926 147.114 63.2629 153.478C70.675 157.969 75.6654 166.056 75.8145 175.32V176.174C75.5864 190.347 64.0261 201.766 49.7987 201.766H49.3345C34.9645 201.766 23.3152 213.416 23.3152 227.786C23.3152 242.156 34.9645 253.805 49.3345 253.805H65.8959L75.8145 253.805L94.7688 253.805L111.145 253.805C118.203 253.805 123.924 248.083 123.924 241.026V35.4532H95.359Z" fill="url(#paint1_linear)"/>
<path fill-rule="evenodd" clip-rule="evenodd" d="M163.752 28.1951C172.23 28.1951 181.704 32.6153 191.343 37.9664C196.356 38.036 201.481 39.4913 206.205 42.6084L316.003 115.056C332.214 125.752 332.214 149.536 316.003 160.232L206.205 232.68C187.713 244.881 163.074 231.619 163.074 209.465V205.562L162.787 206.686C162.787 192.604 151.371 181.188 137.288 181.188H126.558C112.476 181.188 101.06 169.771 101.06 155.689C101.06 141.606 112.476 130.19 126.558 130.19H134.272C148.354 130.19 159.771 118.774 159.771 104.691C159.771 90.6088 148.354 79.1926 134.272 79.1926H82.5661C68.4835 79.1926 57.0673 67.7764 57.0673 53.6938C57.0673 39.6112 68.4835 28.1951 82.5661 28.1951H139.701H163.752ZM19.582 72.4112C29.9749 72.4112 38.4001 63.986 38.4001 53.5931C38.4001 43.2001 29.9749 34.775 19.582 34.775C9.18901 34.775 0.763855 43.2001 0.763855 53.5931C0.763855 63.986 9.18901 72.4112 19.582 72.4112Z" fill="url(#paint2_radial)"/>
<path fill-rule="evenodd" clip-rule="evenodd" d="M162.814 206.572V238.97C162.814 248.547 173.463 254.283 181.46 249.013L203.635 234.399C204.542 233.929 205.437 233.403 206.319 232.819L249.054 204.517C249.743 204.06 250.422 203.596 251.092 203.124L256.658 199.455V198.833C294.547 166.954 294.547 107.96 256.658 76.0805V75.765L256.448 75.9038C254.125 73.9625 251.66 72.1227 249.054 70.3968L206.319 42.0943C205.498 41.5501 204.664 41.0562 203.82 40.6113C190.161 32.8968 175.767 28.1951 163.752 28.1951H139.701H120.152C106.069 28.1951 94.653 39.6112 94.653 53.6938C94.653 67.7764 106.069 79.1926 120.152 79.1926H134.272C148.354 79.1926 159.771 90.6088 159.771 104.691C159.771 115.004 153.648 123.887 144.839 127.904C135.275 133.129 128.788 143.28 128.788 154.946C128.788 167.616 136.439 178.499 147.373 183.225C147.445 183.256 147.504 183.294 147.552 183.338C156.522 187.288 162.786 196.256 162.786 206.686L162.814 206.572Z" fill="url(#paint3_linear)"/>
<defs>
<linearGradient id="paint0_linear" x1="0.763916" y1="142.97" x2="109.129" y2="142.97" gradientUnits="userSpaceOnUse">
<stop stop-color="#9D61F2"/>
<stop offset="1" stop-color="#9246FF"/>
</linearGradient>
<linearGradient id="paint1_linear" x1="23.3152" y1="131.965" x2="161.659" y2="131.965" gradientUnits="userSpaceOnUse">
<stop stop-color="#8A5BCC"/>
<stop offset="1" stop-color="#9A5EF0"/>
</linearGradient>
<radialGradient id="paint2_radial" cx="0" cy="0" r="1" gradientUnits="userSpaceOnUse" gradientTransform="translate(26.9244 125.149) rotate(15.9774) scale(76.3757 166.159)">
<stop stop-color="#00B0FF"/>
<stop offset="1" stop-color="#34BAF8"/>
</radialGradient>
<linearGradient id="paint3_linear" x1="102.172" y1="140.146" x2="362.352" y2="139.606" gradientUnits="userSpaceOnUse">
<stop stop-color="#03A9F4"/>
<stop offset="1" stop-color="#35BBF8"/>
</linearGradient>
</defs>
</svg>
