<svg width="1920" height="1024" viewBox="0 0 1920 1024" fill="none" xmlns="http://www.w3.org/2000/svg">
<g clip-path="url(#clip0)">
<path d="M1267.79 707.924L1266.65 715.545L1271.67 721.391L1264.06 722.658L1260.06 729.238L1256.5 722.401L1249 720.622L1254.41 715.13L1253.78 707.449L1260.68 710.892L1267.79 707.924Z" fill="#282F37"/>
<path d="M818.662 811.072L821.421 817.857L827.493 821.953L821.893 826.673L819.874 833.714L813.654 829.846L806.335 830.102L808.091 822.991L805.586 816.109L812.891 815.582L818.662 811.072Z" fill="#282F37"/>
<path d="M437.666 325.951L442.485 320.388L443.158 313.059L449.938 315.923L457.117 314.298L456.488 321.631L460.251 327.956L453.083 329.625L448.23 335.158L444.429 328.856L437.666 325.951Z" fill="#282F37"/>
<path d="M826.464 109.07L818.133 109.38L814.977 117.096L812.108 109.269L803.794 108.652L810.352 103.505L808.369 95.4071L815.291 100.053L822.38 95.6652L820.1 103.684L826.464 109.07Z" fill="#282F37"/>
<path d="M128.662 597.072L131.421 603.857L137.493 607.953L131.893 612.673L129.874 619.714L123.654 615.846L116.334 616.102L118.091 608.991L115.585 602.109L122.891 601.582L128.662 597.072Z" fill="#282F37"/>
<path d="M365.666 483.951L370.485 478.388L371.158 471.059L377.938 473.923L385.117 472.298L384.488 479.631L388.251 485.956L381.083 487.625L376.23 493.158L372.429 486.856L365.666 483.951Z" fill="#282F37"/>
<path d="M729.06 676.329L727.916 683.95L732.936 689.796L725.335 691.063L721.326 697.644L717.772 690.806L710.275 689.027L715.679 683.535L715.054 675.854L721.948 679.297L729.06 676.329Z" fill="#282F37"/>
<path d="M105.662 825.072L108.421 831.857L114.493 835.953L108.893 840.673L106.874 847.714L100.654 843.846L93.3344 844.102L95.0908 836.991L92.5855 830.109L99.8908 829.582L105.662 825.072Z" fill="#282F37"/>
<path d="M329.178 724.72L333.997 719.157L334.67 711.828L341.45 714.692L348.628 713.067L347.999 720.4L351.763 726.725L344.594 728.394L339.742 733.927L335.94 727.625L329.178 724.72Z" fill="#282F37"/>
<path d="M521.426 654.424L513.095 654.733L509.939 662.45L507.07 654.623L498.756 654.006L505.314 648.858L503.331 640.761L510.253 645.407L517.342 641.019L515.062 649.038L521.426 654.424Z" fill="#282F37"/>
<path d="M983.002 796.556L987.767 801.918L994.339 804.792L990.711 810.981L990.009 818.12L983.002 816.582L975.996 818.12L975.293 810.981L971.665 804.792L978.238 801.918L983.002 796.556Z" fill="#282F37"/>
<path d="M562.691 962.979L561.547 970.599L566.567 976.446L558.966 977.713L554.957 984.293L551.404 977.456L543.906 975.677L549.31 970.184L548.686 962.504L555.58 965.947L562.691 962.979Z" fill="#282F37"/>
<path d="M364.939 928.855L369.758 923.292L370.431 915.963L377.211 918.827L384.389 917.202L383.76 924.536L387.524 930.861L380.355 932.529L375.503 938.062L371.701 931.76L364.939 928.855Z" fill="#282F37"/>
<path d="M585.426 808.051L577.095 808.361L573.939 816.077L571.07 808.25L562.756 807.633L569.314 802.485L567.331 794.388L574.253 799.034L581.342 794.646L579.062 802.665L585.426 808.051Z" fill="#282F37"/>
<path d="M80.4261 990.051L72.0949 990.361L68.9394 998.077L66.0703 990.25L57.7562 989.633L64.3141 984.485L62.3312 976.388L69.2534 981.034L76.342 976.646L74.0622 984.665L80.4261 990.051Z" fill="#282F37"/>
<path d="M1018.76 1000.69L1023.53 1006.05L1030.1 1008.93L1026.47 1015.12L1025.77 1022.25L1018.76 1020.72L1011.76 1022.25L1011.05 1015.12L1007.43 1008.93L1014 1006.05L1018.76 1000.69Z" fill="#282F37"/>
<path d="M1078.67 685.979L1083.49 680.416L1084.16 673.087L1090.94 675.951L1098.12 674.326L1097.49 681.659L1101.25 687.984L1094.08 689.653L1089.23 695.186L1085.43 688.884L1078.67 685.979Z" fill="#282F37"/>
<path d="M1732.49 757.815L1737.26 763.177L1743.83 766.051L1740.2 772.24L1739.5 779.379L1732.49 777.841L1725.48 779.379L1724.78 772.24L1721.15 766.051L1727.73 763.177L1732.49 757.815Z" fill="#282F37"/>
<path d="M1312.18 924.238L1311.04 931.859L1316.06 937.705L1308.46 938.972L1304.45 945.552L1300.89 938.715L1293.4 936.936L1298.8 931.443L1298.17 923.763L1305.07 927.206L1312.18 924.238Z" fill="#282F37"/>
<path d="M808.76 986.193L811.519 992.978L817.591 997.074L811.991 1001.79L809.972 1008.83L803.752 1004.97L796.432 1005.22L798.189 998.112L795.684 991.229L802.989 990.703L808.76 986.193Z" fill="#282F37"/>
<path d="M1466.08 918.425L1470.9 912.862L1471.57 905.533L1478.35 908.397L1485.53 906.772L1484.9 914.105L1488.66 920.43L1481.49 922.098L1476.64 927.632L1472.84 921.33L1466.08 918.425Z" fill="#282F37"/>
<path d="M1710.43 891.051L1702.09 891.361L1698.94 899.077L1696.07 891.25L1687.76 890.633L1694.31 885.485L1692.33 877.388L1699.25 882.034L1706.34 877.646L1704.06 885.665L1710.43 891.051Z" fill="#282F37"/>
<path d="M345.426 60.0506L337.095 60.3604L333.939 68.0771L331.07 60.2495L322.756 59.633L329.314 54.4854L327.331 46.3877L334.253 51.034L341.342 46.6458L339.062 54.665L345.426 60.0506Z" fill="#282F37"/>
<path d="M536.92 150L541.685 155.363L548.257 158.237L544.629 164.425L543.927 171.564L536.92 170.026L529.914 171.564L529.211 164.425L525.583 158.237L532.156 155.363L536.92 150Z" fill="#282F37"/>
<path d="M205.082 326.733L203.938 334.354L208.958 340.2L201.357 341.467L197.348 348.047L193.794 341.21L186.297 339.431L191.701 333.938L191.077 326.258L197.971 329.701L205.082 326.733Z" fill="#282F37"/>
<path d="M1145.72 69.1037L1150.54 63.5407L1151.21 56.2116L1157.99 59.0755L1165.17 57.4509L1164.54 64.7839L1168.3 71.1089L1161.13 72.777L1156.28 78.3107L1152.48 72.0086L1145.72 69.1037Z" fill="#282F37"/>
<path d="M1799.54 140.939L1804.31 146.302L1810.88 149.176L1807.25 155.364L1806.55 162.503L1799.54 160.965L1792.54 162.503L1791.83 155.364L1788.21 149.176L1794.78 146.302L1799.54 140.939Z" fill="#282F37"/>
<path d="M1869.15 870.722L1875.54 867.08L1878.62 860.393L1884.06 865.35L1891.37 866.207L1888.34 872.913L1889.78 880.129L1882.46 879.317L1876.05 882.92L1874.56 875.712L1869.15 870.722Z" fill="#282F37"/>
<path d="M1543.35 138.362L1546.11 145.147L1552.18 149.242L1546.58 153.962L1544.56 161.003L1538.34 157.135L1531.02 157.391L1532.78 150.281L1530.27 143.398L1537.58 142.871L1543.35 138.362Z" fill="#282F37"/>
<path d="M1551.66 666.072L1554.42 672.857L1560.49 676.953L1554.89 681.673L1552.87 688.714L1546.65 684.846L1539.33 685.102L1541.09 677.991L1538.59 671.109L1545.89 670.582L1551.66 666.072Z" fill="#282F37"/>
<path d="M675.06 17.3295L673.916 24.9497L678.936 30.7959L671.335 32.063L667.326 38.6436L663.772 31.8065L656.275 30.0272L661.679 24.5346L661.054 16.8544L667.948 20.2969L675.06 17.3295Z" fill="#282F37"/>
<path d="M142.714 108.561L145.472 115.346L151.544 119.441L145.944 124.162L143.925 131.202L137.706 127.334L130.386 127.59L132.142 120.48L129.637 113.597L136.942 113.07L142.714 108.561Z" fill="#282F37"/>
<path d="M968.099 297.695L972.918 292.132L973.591 284.803L980.371 287.667L987.549 286.043L986.92 293.376L990.684 299.701L983.515 301.369L978.663 306.902L974.861 300.6L968.099 297.695Z" fill="#282F37"/>
<path d="M1352.85 413.898L1344.51 414.208L1341.36 421.925L1338.49 414.097L1330.18 413.48L1336.73 408.333L1334.75 400.235L1341.67 404.881L1348.76 400.493L1346.48 408.512L1352.85 413.898Z" fill="#282F37"/>
<path d="M1688.1 541.501L1692.86 546.863L1699.44 549.737L1695.81 555.926L1695.11 563.065L1688.1 561.527L1681.09 563.065L1680.39 555.926L1676.76 549.737L1683.34 546.863L1688.1 541.501Z" fill="#282F37"/>
<path d="M1063.77 152.601L1068.54 157.963L1075.11 160.838L1071.48 167.026L1070.78 174.165L1063.77 172.627L1056.77 174.165L1056.07 167.026L1052.44 160.838L1059.01 157.963L1063.77 152.601Z" fill="#282F37"/>
<path d="M750.472 293.835L742.141 294.144L738.985 301.861L736.116 294.033L727.802 293.417L734.36 288.269L732.377 280.172L739.299 284.818L746.388 280.43L744.108 288.449L750.472 293.835Z" fill="#282F37"/>
<path d="M1418.04 575.683L1409.71 575.993L1406.55 583.709L1403.68 575.882L1395.37 575.265L1401.93 570.117L1399.94 562.02L1406.87 566.666L1413.95 562.278L1411.67 570.297L1418.04 575.683Z" fill="#282F37"/>
<path d="M1403.72 274.663L1402.58 282.283L1407.6 288.13L1400 289.397L1395.99 295.977L1392.43 289.14L1384.94 287.361L1390.34 281.868L1389.72 274.188L1396.61 277.631L1403.72 274.663Z" fill="#282F37"/>
<path d="M1726.83 361.151L1731.65 355.588L1732.33 348.259L1739.1 351.123L1746.28 349.498L1745.65 356.831L1749.42 363.156L1742.25 364.824L1737.4 370.358L1733.6 364.056L1726.83 361.151Z" fill="#282F37"/>
<path d="M1395.43 19.0506L1387.09 19.3605L1383.94 27.0771L1381.07 19.2495L1372.76 18.633L1379.31 13.4854L1377.33 5.38773L1384.25 10.034L1391.34 5.64583L1389.06 13.665L1395.43 19.0506Z" fill="#282F37"/>
</g>
<defs>
<clipPath id="clip0">
<rect width="1921" height="1025" fill="white"/>
</clipPath>
</defs>
</svg>
