<svg width="512" height="512" viewBox="0 0 512 512" fill="none" xmlns="http://www.w3.org/2000/svg">
<g clip-path="url(#clip0)">
<mask id="path-1-outside-1" maskUnits="userSpaceOnUse" x="-63.1421" y="-63.1768" width="639.225" height="639.225" fill="black">
<rect fill="white" x="-63.1421" y="-63.1768" width="639.225" height="639.225"/>
<path fill-rule="evenodd" clip-rule="evenodd" d="M91.0228 265.619C82.4303 274.212 68.4991 274.212 59.9066 265.619C51.3141 257.027 51.3141 243.095 59.9066 234.503L234.503 59.9067C294.65 -0.240783 392.169 -0.240783 452.316 59.9067C512.463 120.054 512.463 217.572 452.316 277.72L246.604 483.432C238.011 492.025 224.08 492.025 215.487 483.432C206.895 474.84 206.895 460.909 215.487 452.316L231.045 436.758C239.638 428.166 239.638 414.234 231.046 405.642C222.453 397.049 208.522 397.049 199.929 405.642L137.697 467.874C129.105 476.467 115.173 476.467 106.581 467.874C97.9883 459.282 97.9883 445.351 106.581 436.758L153.255 390.084C161.848 381.491 161.848 367.56 153.255 358.968C144.663 350.375 130.731 350.375 122.139 358.968L59.9066 421.2C51.3141 429.792 37.3829 429.792 28.7904 421.2C20.1979 412.607 20.1979 398.676 28.7904 390.084L137.697 281.177C146.29 272.585 146.29 258.654 137.697 250.061C129.105 241.469 115.173 241.469 106.581 250.061L91.0228 265.619ZM41.7555 309.7C48.9159 302.54 48.9159 290.931 41.7555 283.77C34.5951 276.61 22.9858 276.61 15.8253 283.77C8.66493 290.931 8.66493 302.54 15.8253 309.7C22.9858 316.861 34.5951 316.861 41.7555 309.7Z"/>
</mask>
<path fill-rule="evenodd" clip-rule="evenodd" d="M91.0228 265.619C82.4303 274.212 68.4991 274.212 59.9066 265.619C51.3141 257.027 51.3141 243.095 59.9066 234.503L234.503 59.9067C294.65 -0.240783 392.169 -0.240783 452.316 59.9067C512.463 120.054 512.463 217.572 452.316 277.72L246.604 483.432C238.011 492.025 224.08 492.025 215.487 483.432C206.895 474.84 206.895 460.909 215.487 452.316L231.045 436.758C239.638 428.166 239.638 414.234 231.046 405.642C222.453 397.049 208.522 397.049 199.929 405.642L137.697 467.874C129.105 476.467 115.173 476.467 106.581 467.874C97.9883 459.282 97.9883 445.351 106.581 436.758L153.255 390.084C161.848 381.491 161.848 367.56 153.255 358.968C144.663 350.375 130.731 350.375 122.139 358.968L59.9066 421.2C51.3141 429.792 37.3829 429.792 28.7904 421.2C20.1979 412.607 20.1979 398.676 28.7904 390.084L137.697 281.177C146.29 272.585 146.29 258.654 137.697 250.061C129.105 241.469 115.173 241.469 106.581 250.061L91.0228 265.619ZM41.7555 309.7C48.9159 302.54 48.9159 290.931 41.7555 283.77C34.5951 276.61 22.9858 276.61 15.8253 283.77C8.66493 290.931 8.66493 302.54 15.8253 309.7C22.9858 316.861 34.5951 316.861 41.7555 309.7Z" fill="url(#paint0_linear)"/>
<path d="M52.8355 272.69C65.3333 285.188 85.5961 285.188 98.0938 272.69L83.9517 258.548C79.2644 263.235 71.6649 263.235 66.9777 258.548L52.8355 272.69ZM52.8355 227.432C40.3378 239.93 40.3378 260.192 52.8355 272.69L66.9777 258.548C62.2904 253.861 62.2904 246.261 66.9777 241.574L52.8355 227.432ZM227.432 52.8356L52.8355 227.432L66.9777 241.574L241.574 66.9777L227.432 52.8356ZM459.387 52.8356C395.334 -11.2171 291.485 -11.2171 227.432 52.8356L241.574 66.9777C297.816 10.7355 389.003 10.7355 445.245 66.9777L459.387 52.8356ZM459.387 284.791C523.44 220.738 523.44 116.888 459.387 52.8356L445.245 66.9777C501.487 123.22 501.487 214.407 445.245 270.649L459.387 284.791ZM253.675 490.503L459.387 284.791L445.245 270.649L239.533 476.361L253.675 490.503ZM208.416 490.503C220.914 503.001 241.177 503.001 253.675 490.503L239.533 476.361C234.845 481.048 227.246 481.048 222.558 476.361L208.416 490.503ZM208.416 445.245C195.919 457.743 195.919 478.006 208.416 490.503L222.558 476.361C217.871 471.674 217.871 464.074 222.558 459.387L208.416 445.245ZM223.974 429.687L208.416 445.245L222.558 459.387L238.117 443.829L223.974 429.687ZM223.974 412.713C228.662 417.4 228.662 425 223.974 429.687L238.117 443.829C250.614 431.331 250.614 411.069 238.117 398.571L223.974 412.713ZM207 412.713C211.688 408.026 219.287 408.026 223.974 412.713L238.117 398.571C225.619 386.073 205.356 386.073 192.858 398.571L207 412.713ZM144.768 474.945L207 412.713L192.858 398.571L130.626 460.803L144.768 474.945ZM99.5098 474.945C112.007 487.443 132.27 487.443 144.768 474.945L130.626 460.803C125.939 465.49 118.339 465.49 113.652 460.803L99.5098 474.945ZM99.5098 429.687C87.012 442.185 87.012 462.448 99.5098 474.945L113.652 460.803C108.965 456.116 108.965 448.516 113.652 443.829L99.5098 429.687ZM146.184 383.013L99.5098 429.687L113.652 443.829L160.326 397.155L146.184 383.013ZM146.184 366.039C150.871 370.726 150.871 378.325 146.184 383.013L160.326 397.155C172.824 384.657 172.824 364.394 160.326 351.897L146.184 366.039ZM129.21 366.039C133.897 361.351 141.497 361.351 146.184 366.039L160.326 351.897C147.828 339.399 127.566 339.399 115.068 351.897L129.21 366.039ZM66.9776 428.271L129.21 366.039L115.068 351.897L52.8355 414.129L66.9776 428.271ZM21.7193 428.271C34.2171 440.769 54.4799 440.769 66.9776 428.271L52.8355 414.129C48.1483 418.816 40.5487 418.816 35.8615 414.129L21.7193 428.271ZM21.7194 383.013C9.22162 395.51 9.22161 415.773 21.7193 428.271L35.8615 414.129C31.1742 409.442 31.1742 401.842 35.8615 397.155L21.7194 383.013ZM130.626 274.106L21.7194 383.013L35.8615 397.155L144.768 288.248L130.626 274.106ZM130.626 257.132C135.313 261.819 135.313 269.419 130.626 274.106L144.768 288.248C157.266 275.751 157.266 255.488 144.768 242.99L130.626 257.132ZM113.652 257.132C118.339 252.445 125.939 252.445 130.626 257.132L144.768 242.99C132.27 230.492 112.008 230.492 99.5098 242.99L113.652 257.132ZM98.0938 272.69L113.652 257.132L99.5098 242.99L83.9517 258.548L98.0938 272.69ZM34.6844 290.841C37.9396 294.096 37.9396 299.374 34.6844 302.629L48.8266 316.771C59.8922 305.706 59.8922 287.765 48.8266 276.699L34.6844 290.841ZM22.8964 290.841C26.1516 287.586 31.4293 287.586 34.6844 290.841L48.8266 276.699C37.7609 265.634 19.8199 265.634 8.75428 276.699L22.8964 290.841ZM22.8964 302.629C19.6412 299.374 19.6412 294.096 22.8964 290.841L8.75428 276.699C-2.31138 287.765 -2.31138 305.706 8.75428 316.771L22.8964 302.629ZM34.6844 302.629C31.4292 305.884 26.1516 305.884 22.8964 302.629L8.75428 316.771C19.8199 327.837 37.7609 327.837 48.8266 316.771L34.6844 302.629Z" fill="white" mask="url(#path-1-outside-1)"/>
<path fill-rule="evenodd" clip-rule="evenodd" d="M91.0227 234.503C99.6152 243.095 113.546 243.095 122.139 234.503L153.255 203.387C161.848 194.794 175.779 194.794 184.371 203.387C192.964 211.979 192.964 225.91 184.371 234.503L91.0227 327.851C82.4302 336.444 82.4302 350.375 91.0227 358.968C99.6152 367.56 113.546 367.56 122.139 358.968L247.651 233.455C217.246 188.521 221.939 126.924 261.73 87.1333C306.84 42.0227 379.979 42.0227 425.089 87.1333C470.2 132.244 470.2 205.383 425.089 250.493C385.299 290.284 323.702 294.976 278.767 264.571L184.371 358.968C175.779 367.56 175.779 381.491 184.371 390.084C192.964 398.676 206.895 398.676 215.487 390.084L277.72 327.851C286.312 319.259 300.243 319.259 308.836 327.851C317.428 336.444 317.428 350.375 308.836 358.968L293.278 374.526C284.685 383.118 284.685 397.049 293.278 405.642C301.87 414.234 315.801 414.234 324.394 405.642L452.316 277.72C512.463 217.572 512.463 120.054 452.316 59.9066C392.169 -0.240818 294.65 -0.240798 234.503 59.9067L91.0227 203.387C82.4302 211.979 82.4302 225.91 91.0227 234.503ZM275.127 449.723C282.287 442.563 282.287 430.953 275.127 423.793C267.966 416.633 256.357 416.633 249.197 423.793C242.036 430.953 242.036 442.563 249.197 449.723C256.357 456.883 267.966 456.883 275.127 449.723ZM72.8716 377.119C80.032 384.279 80.032 395.888 72.8716 403.049C65.7112 410.209 54.1019 410.209 46.9415 403.049C39.7811 395.888 39.7811 384.279 46.9415 377.119C54.1019 369.958 65.7112 369.958 72.8716 377.119ZM405.552 185.372C417.301 178.589 417.301 161.631 405.552 154.848L323.61 107.539C311.862 100.755 297.176 109.234 297.176 122.801V217.419C297.176 230.985 311.862 239.464 323.61 232.681L405.552 185.372Z" fill="url(#paint1_linear)"/>
</g>
<defs>
<linearGradient id="paint0_linear" x1="343.51" y1="-48.8671" x2="343.51" y2="386.598" gradientUnits="userSpaceOnUse">
<stop stop-color="#03A9F4"/>
<stop offset="1" stop-color="#00BCD4"/>
</linearGradient>
<linearGradient id="paint1_linear" x1="343.409" y1="-49" x2="368.56" y2="655.84" gradientUnits="userSpaceOnUse">
<stop stop-color="#673AB7"/>
<stop offset="1" stop-color="#9C27B0"/>
</linearGradient>
<clipPath id="clip0">
<rect width="512" height="512" fill="white"/>
</clipPath>
</defs>
</svg>
