<svg width="144" height="144" viewBox="0 0 144 144" fill="none" xmlns="http://www.w3.org/2000/svg">
<g clip-path="url(#clip0)">
<mask id="path-1-outside-1" maskUnits="userSpaceOnUse" x="-18.0239" y="-17.9673" width="180.312" height="180.312" fill="black">
<rect fill="white" x="-18.0239" y="-17.9673" width="180.312" height="180.312"/>
<path fill-rule="evenodd" clip-rule="evenodd" d="M25.6002 74.7054C23.1835 77.122 19.2654 77.122 16.8487 74.7054C14.4321 72.2888 14.4321 68.3706 16.8487 65.954L65.9539 16.8488C82.8704 -0.06771 110.297 -0.0677113 127.214 16.8488C144.13 33.7652 144.13 61.1922 127.214 78.1087L69.3573 135.965C66.9406 138.382 63.0225 138.382 60.6058 135.965C58.1892 133.549 58.1892 129.631 60.6058 127.214L64.9815 122.838C67.3982 120.422 67.3982 116.503 64.9815 114.087C62.5649 111.67 58.6468 111.67 56.2301 114.087L38.7273 131.59C36.3106 134.006 32.3925 134.006 29.9759 131.59C27.5592 129.173 27.5592 125.255 29.9759 122.838L43.103 109.711C45.5196 107.294 45.5196 103.376 43.103 100.96C40.6864 98.543 36.7682 98.543 34.3516 100.96L16.8487 118.463C14.4321 120.879 10.5139 120.879 8.0973 118.463C5.68066 116.046 5.68067 112.128 8.0973 109.711L38.7273 79.0811C41.1439 76.6645 41.1439 72.7463 38.7273 70.3297C36.3106 67.913 32.3925 67.913 29.9759 70.3297L25.6002 74.7054ZM11.7437 87.1032C13.7576 85.0894 13.7576 81.8242 11.7437 79.8104C9.72985 77.7965 6.46472 77.7965 4.45086 79.8104C2.43699 81.8242 2.43699 85.0894 4.45086 87.1032C6.46472 89.1171 9.72985 89.1171 11.7437 87.1032Z"/>
</mask>
<path fill-rule="evenodd" clip-rule="evenodd" d="M25.6002 74.7054C23.1835 77.122 19.2654 77.122 16.8487 74.7054C14.4321 72.2888 14.4321 68.3706 16.8487 65.954L65.9539 16.8488C82.8704 -0.06771 110.297 -0.0677113 127.214 16.8488C144.13 33.7652 144.13 61.1922 127.214 78.1087L69.3573 135.965C66.9406 138.382 63.0225 138.382 60.6058 135.965C58.1892 133.549 58.1892 129.631 60.6058 127.214L64.9815 122.838C67.3982 120.422 67.3982 116.503 64.9815 114.087C62.5649 111.67 58.6468 111.67 56.2301 114.087L38.7273 131.59C36.3106 134.006 32.3925 134.006 29.9759 131.59C27.5592 129.173 27.5592 125.255 29.9759 122.838L43.103 109.711C45.5196 107.294 45.5196 103.376 43.103 100.96C40.6864 98.543 36.7682 98.543 34.3516 100.96L16.8487 118.463C14.4321 120.879 10.5139 120.879 8.0973 118.463C5.68066 116.046 5.68067 112.128 8.0973 109.711L38.7273 79.0811C41.1439 76.6645 41.1439 72.7463 38.7273 70.3297C36.3106 67.913 32.3925 67.913 29.9759 70.3297L25.6002 74.7054ZM11.7437 87.1032C13.7576 85.0894 13.7576 81.8242 11.7437 79.8104C9.72985 77.7965 6.46472 77.7965 4.45086 79.8104C2.43699 81.8242 2.43699 85.0894 4.45086 87.1032C6.46472 89.1171 9.72985 89.1171 11.7437 87.1032Z" fill="url(#paint0_linear)"/>
<path d="M14.86 76.6941C18.375 80.2091 24.0739 80.2091 27.5889 76.6941L23.6114 72.7167C22.2931 74.0349 20.1558 74.0349 18.8375 72.7167L14.86 76.6941ZM14.86 63.9652C11.345 67.4802 11.345 73.1791 14.86 76.6941L18.8375 72.7167C17.5192 71.3984 17.5192 69.261 18.8375 67.9427L14.86 63.9652ZM63.9652 14.86L14.86 63.9652L18.8375 67.9427L67.9427 18.8375L63.9652 14.86ZM129.203 14.86C111.188 -3.1548 81.98 -3.1548 63.9652 14.86L67.9427 18.8375C83.7608 3.01938 109.407 3.01938 125.225 18.8375L129.203 14.86ZM129.203 80.0975C147.217 62.0826 147.217 32.8748 129.203 14.86L125.225 18.8375C141.043 34.6556 141.043 60.3018 125.225 76.12L129.203 80.0975ZM71.346 137.954L129.203 80.0975L125.225 76.12L67.3685 133.977L71.346 137.954ZM58.6171 137.954C62.1321 141.469 67.831 141.469 71.346 137.954L67.3685 133.977C66.0502 135.295 63.9129 135.295 62.5946 133.977L58.6171 137.954ZM58.6171 125.225C55.1021 128.74 55.1021 134.439 58.6171 137.954L62.5946 133.977C61.2763 132.658 61.2763 130.521 62.5946 129.203L58.6171 125.225ZM62.9928 120.849L58.6171 125.225L62.5946 129.203L66.9703 124.827L62.9928 120.849ZM62.9928 116.076C64.3111 117.394 64.3111 119.531 62.9928 120.849L66.9703 124.827C70.4853 121.312 70.4853 115.613 66.9703 112.098L62.9928 116.076ZM58.2189 116.076C59.5372 114.757 61.6745 114.757 62.9928 116.076L66.9703 112.098C63.4553 108.583 57.7564 108.583 54.2414 112.098L58.2189 116.076ZM40.716 133.578L58.2189 116.076L54.2414 112.098L36.7385 129.601L40.716 133.578ZM27.9871 133.578C31.5021 137.093 37.201 137.093 40.716 133.578L36.7385 129.601C35.4203 130.919 33.2829 130.919 31.9646 129.601L27.9871 133.578ZM27.9871 120.849C24.4721 124.364 24.4721 130.063 27.9871 133.578L31.9646 129.601C30.6463 128.283 30.6463 126.145 31.9646 124.827L27.9871 120.849ZM41.1143 107.722L27.9871 120.849L31.9646 124.827L45.0917 111.7L41.1143 107.722ZM41.1143 102.948C42.4325 104.267 42.4325 106.404 41.1143 107.722L45.0917 111.7C48.6067 108.185 48.6067 102.486 45.0917 98.9709L41.1143 102.948ZM36.3403 102.948C37.6586 101.63 39.796 101.63 41.1143 102.948L45.0917 98.9709C41.5767 95.4559 35.8778 95.4559 32.3628 98.9709L36.3403 102.948ZM18.8375 120.451L36.3403 102.948L32.3628 98.9709L14.86 116.474L18.8375 120.451ZM6.10856 120.451C9.62355 123.966 15.3225 123.966 18.8375 120.451L14.86 116.474C13.5417 117.792 11.4043 117.792 10.086 116.474L6.10856 120.451ZM6.10857 107.722C2.59358 111.237 2.59358 116.936 6.10856 120.451L10.086 116.474C8.76775 115.155 8.76775 113.018 10.086 111.7L6.10857 107.722ZM36.7385 77.0924L6.10857 107.722L10.086 111.7L40.716 81.0698L36.7385 77.0924ZM36.7385 72.3184C38.0568 73.6367 38.0568 75.7741 36.7385 77.0924L40.716 81.0698C44.231 77.5549 44.231 71.8559 40.716 68.3409L36.7385 72.3184ZM31.9646 72.3184C33.2829 71.0001 35.4203 71.0001 36.7385 72.3184L40.716 68.3409C37.201 64.826 31.5021 64.826 27.9871 68.3409L31.9646 72.3184ZM27.5889 76.6941L31.9646 72.3184L27.9871 68.3409L23.6114 72.7167L27.5889 76.6941ZM9.75497 81.7991C10.6705 82.7146 10.6705 84.199 9.75497 85.1145L13.7324 89.092C16.8447 85.9798 16.8447 80.9339 13.7324 77.8216L9.75497 81.7991ZM6.4396 81.7991C7.35511 80.8836 8.83946 80.8836 9.75497 81.7991L13.7324 77.8216C10.6202 74.7094 5.57434 74.7094 2.46212 77.8216L6.4396 81.7991ZM6.4396 85.1145C5.52408 84.199 5.52408 82.7146 6.4396 81.7991L2.46212 77.8216C-0.650093 80.9339 -0.650094 85.9798 2.46212 89.092L6.4396 85.1145ZM9.75497 85.1145C8.83946 86.03 7.35511 86.03 6.4396 85.1145L2.46212 89.092C5.57434 92.2042 10.6202 92.2042 13.7324 89.092L9.75497 85.1145Z" fill="white" mask="url(#path-1-outside-1)"/>
<path fill-rule="evenodd" clip-rule="evenodd" d="M25.6001 65.954C28.0167 68.3706 31.9349 68.3706 34.3515 65.954L43.103 57.2025C45.5196 54.7859 49.4377 54.7859 51.8544 57.2025C54.271 59.6192 54.271 63.5373 51.8544 65.954L25.6001 92.2082C23.1835 94.6249 23.1835 98.543 25.6001 100.96C28.0167 103.376 31.9349 103.376 34.3515 100.96L69.6519 65.6592C61.1005 53.0215 62.4204 35.6973 73.6114 24.5062C86.2988 11.8189 106.869 11.8189 119.556 24.5063C132.244 37.1936 132.244 57.7639 119.556 70.4512C108.365 81.6423 91.041 82.9621 78.4033 74.4107L51.8544 100.96C49.4377 103.376 49.4377 107.294 51.8544 109.711C54.271 112.128 58.1892 112.128 60.6058 109.711L78.1086 92.2082C80.5253 89.7916 84.4434 89.7916 86.8601 92.2082C89.2767 94.6249 89.2767 98.543 86.8601 100.96L82.4843 105.335C80.0677 107.752 80.0677 111.67 82.4843 114.087C84.901 116.503 88.8191 116.503 91.2358 114.087L127.214 78.1087C144.13 61.1922 144.13 33.7652 127.214 16.8487C110.297 -0.0677182 82.8704 -0.0677172 65.9539 16.8488L25.6001 57.2025C23.1835 59.6192 23.1835 63.5373 25.6001 65.954ZM77.3794 126.485C79.3933 124.471 79.3933 121.206 77.3794 119.192C75.3655 117.178 72.1004 117.178 70.0866 119.192C68.0727 121.206 68.0727 124.471 70.0865 126.485C72.1004 128.498 75.3655 128.498 77.3794 126.485ZM20.4951 106.065C22.509 108.078 22.509 111.344 20.4951 113.357C18.4813 115.371 15.2161 115.371 13.2023 113.357C11.1884 111.344 11.1884 108.078 13.2023 106.065C15.2161 104.051 18.4813 104.051 20.4951 106.065ZM114.062 52.1358C117.366 50.228 117.366 45.4587 114.062 43.5509L91.0154 30.2452C87.7111 28.3375 83.5807 30.7222 83.5807 34.5377L83.5807 61.149C83.5807 64.9645 87.7111 67.3492 91.0154 65.4415L114.062 52.1358Z" fill="url(#paint1_linear)"/>
</g>
<defs>
<linearGradient id="paint0_linear" x1="96.6122" y1="-13.7438" x2="96.6122" y2="108.731" gradientUnits="userSpaceOnUse">
<stop stop-color="#00B0FF"/>
<stop offset="1" stop-color="#05D6F1"/>
</linearGradient>
<linearGradient id="paint1_linear" x1="96.5839" y1="-13.7813" x2="103.657" y2="184.455" gradientUnits="userSpaceOnUse">
<stop stop-color="#673AB7"/>
<stop offset="1" stop-color="#9C27B0"/>
</linearGradient>
<clipPath id="clip0">
<rect width="144" height="144" fill="white"/>
</clipPath>
</defs>
</svg>
