<svg width="436" height="301" viewBox="0 0 436 301" fill="none" xmlns="http://www.w3.org/2000/svg">
<path fill-rule="evenodd" clip-rule="evenodd" d="M125.839 9.65552C111.48 9.65552 99.8395 21.2961 99.8395 35.6555V58.4031C99.536 77.2574 84.1574 92.4481 65.2308 92.4481C46.1144 92.4481 30.6175 107.945 30.6175 127.061C30.6175 146.178 46.1144 161.675 65.2308 161.675C84.1574 161.675 99.536 176.865 99.8395 195.72V196.856C99.536 215.71 84.1574 230.901 65.2308 230.901H34.6133C15.4969 230.901 0 246.398 0 265.514C0 284.631 15.4969 300.128 34.6133 300.128H86.6448L99.8395 300.128H146.839C156.228 300.128 163.839 292.517 163.839 283.128V9.65552H125.839Z" fill="#9A5EF0"/>
<path fill-rule="evenodd" clip-rule="evenodd" d="M125.839 9.65552C111.48 9.65552 99.8395 21.2961 99.8395 35.6555V58.4031C99.536 77.2574 84.1574 92.4481 65.2308 92.4481C46.1144 92.4481 30.6175 107.945 30.6175 127.061C30.6175 146.178 46.1144 161.675 65.2308 161.675C84.1574 161.675 99.536 176.865 99.8395 195.72V196.856C99.536 215.71 84.1574 230.901 65.2308 230.901H34.6133C15.4969 230.901 0 246.398 0 265.514C0 284.631 15.4969 300.128 34.6133 300.128H86.6448L99.8395 300.128H146.839C156.228 300.128 163.839 292.517 163.839 283.128V9.65552H125.839Z" fill="url(#paint0_linear)"/>
<path fill-rule="evenodd" clip-rule="evenodd" d="M125.839 9.65552C111.48 9.65552 99.8395 21.2961 99.8395 35.6555V58.4031C99.6498 70.186 93.5724 80.5381 84.4208 86.6459C84.3498 86.7103 84.2628 86.7747 84.1595 86.8389C70.7275 95.1965 61.7864 110.092 61.7864 127.077C61.7864 143.628 70.2777 158.197 83.1417 166.663C93.0022 172.637 99.6411 183.396 99.8395 195.72V196.856C99.536 215.71 84.1574 230.901 65.2308 230.901H64.6133C45.4969 230.901 30 246.398 30 265.514C30 284.631 45.4969 300.128 64.6133 300.128H86.6448H99.8395H125.054H146.839C156.228 300.128 163.839 292.517 163.839 283.128V9.65552H125.839Z" fill="url(#paint1_linear)"/>
<path fill-rule="evenodd" clip-rule="evenodd" d="M216.822 0C228.101 0 240.704 5.88025 253.526 12.9987C260.195 13.0914 267.013 15.0273 273.298 19.174L419.362 115.551C440.926 129.78 440.926 161.419 419.362 175.648L273.298 272.025C248.698 288.257 215.92 270.614 215.92 241.142V235.95L215.539 237.446C215.539 218.712 200.352 203.525 181.618 203.525H167.344C148.61 203.525 133.423 188.338 133.423 169.604C133.423 150.87 148.61 135.684 167.344 135.684H177.605C196.339 135.684 211.526 120.497 211.526 101.763C211.526 83.0287 196.339 67.8418 177.605 67.8418H108.821C90.0872 67.8418 74.9003 52.6549 74.9003 33.9209C74.9003 15.1869 90.0872 0 108.821 0H184.827H216.822ZM25.0336 58.8205C38.8593 58.8205 50.0673 47.6125 50.0673 33.7868C50.0673 19.9612 38.8593 8.75321 25.0336 8.75321C11.2079 8.75321 0 19.9612 0 33.7868C0 47.6125 11.2079 58.8205 25.0336 58.8205Z" fill="url(#paint2_radial)"/>
<path fill-rule="evenodd" clip-rule="evenodd" d="M215.575 237.294V280.393C215.575 293.134 229.741 300.764 240.379 293.753L269.878 274.312C271.085 273.687 272.276 272.988 273.449 272.211L330.3 234.56C331.216 233.953 332.119 233.336 333.009 232.708L340.415 227.827V226.999C390.819 184.59 390.819 106.111 340.415 63.7017V63.2821L340.135 63.4668C337.045 60.8842 333.766 58.4368 330.3 56.1409L273.449 18.4901C272.356 17.7661 271.247 17.1091 270.125 16.5172C251.954 6.25463 232.806 0 216.822 0H184.827H158.821C140.087 0 124.9 15.1869 124.9 33.9209C124.9 52.6549 140.087 67.8418 158.821 67.8418H177.605C196.339 67.8418 211.526 83.0287 211.526 101.763C211.526 115.482 203.381 127.299 191.663 132.642C178.94 139.593 170.309 153.097 170.309 168.617C170.309 185.471 180.488 199.948 195.033 206.236C195.129 206.277 195.208 206.327 195.271 206.386C207.205 211.64 215.537 223.57 215.537 237.446L215.575 237.294Z" fill="url(#paint3_linear)"/>
<defs>
<linearGradient id="paint0_linear" x1="0" y1="152.684" x2="144.158" y2="152.684" gradientUnits="userSpaceOnUse">
<stop stop-color="#9D61F2"/>
<stop offset="1" stop-color="#9246FF"/>
</linearGradient>
<linearGradient id="paint1_linear" x1="30" y1="138.045" x2="214.038" y2="138.045" gradientUnits="userSpaceOnUse">
<stop stop-color="#8A5BCC"/>
<stop offset="1" stop-color="#9A5EF0"/>
</linearGradient>
<radialGradient id="paint2_radial" cx="0" cy="0" r="1" gradientUnits="userSpaceOnUse" gradientTransform="translate(34.8013 128.978) rotate(15.9774) scale(101.602 221.04)">
<stop stop-color="#00B0FF"/>
<stop offset="1" stop-color="#34BAF8"/>
</radialGradient>
<linearGradient id="paint3_linear" x1="134.902" y1="148.928" x2="481.018" y2="148.21" gradientUnits="userSpaceOnUse">
<stop stop-color="#03A9F4"/>
<stop offset="1" stop-color="#35BBF8"/>
</linearGradient>
</defs>
</svg>
