<svg width="1000" height="1000" viewBox="0 0 1000 1000" fill="none" xmlns="http://www.w3.org/2000/svg">
<g clip-path="url(#clip0)">
<mask id="path-1-outside-1" maskUnits="userSpaceOnUse" x="-121.682" y="-122.294" width="1244.51" height="1244.51" fill="black">
<rect fill="white" x="-121.682" y="-122.294" width="1244.51" height="1244.51"/>
<path fill-rule="evenodd" clip-rule="evenodd" d="M169.079 519.288C151.844 536.523 123.9 536.523 106.665 519.288C89.4299 502.053 89.4299 474.11 106.665 456.875L456.875 106.665C577.52 -13.9803 773.125 -13.9803 893.77 106.665C1014.42 227.31 1014.42 422.915 893.77 543.56L481.147 956.183C463.912 973.418 435.968 973.419 418.733 956.183C401.498 938.948 401.498 911.005 418.733 893.77L449.94 862.563C467.175 845.328 467.175 817.385 449.94 800.149C432.705 782.914 404.761 782.914 387.526 800.149L262.699 924.977C245.464 942.212 217.52 942.212 200.285 924.977C183.05 907.742 183.05 879.798 200.285 862.563L293.906 768.943C311.141 751.708 311.141 723.764 293.906 706.529C276.671 689.294 248.727 689.294 231.492 706.529L106.665 831.356C89.4299 848.591 61.4864 848.591 44.2514 831.356C27.0163 814.121 27.0163 786.178 44.2514 768.943L262.699 550.495C279.934 533.26 279.934 505.317 262.699 488.081C245.464 470.846 217.52 470.846 200.285 488.081L169.079 519.288ZM70.257 607.708C84.6195 593.345 84.6195 570.059 70.257 555.696C55.8945 541.334 32.6082 541.334 18.2457 555.696C3.88314 570.059 3.88314 593.345 18.2457 607.708C32.6082 622.07 55.8945 622.07 70.257 607.708Z"/>
</mask>
<path fill-rule="evenodd" clip-rule="evenodd" d="M169.079 519.288C151.844 536.523 123.9 536.523 106.665 519.288C89.4299 502.053 89.4299 474.11 106.665 456.875L456.875 106.665C577.52 -13.9803 773.125 -13.9803 893.77 106.665C1014.42 227.31 1014.42 422.915 893.77 543.56L481.147 956.183C463.912 973.418 435.968 973.419 418.733 956.183C401.498 938.948 401.498 911.005 418.733 893.77L449.94 862.563C467.175 845.328 467.175 817.385 449.94 800.149C432.705 782.914 404.761 782.914 387.526 800.149L262.699 924.977C245.464 942.212 217.52 942.212 200.285 924.977C183.05 907.742 183.05 879.798 200.285 862.563L293.906 768.943C311.141 751.708 311.141 723.764 293.906 706.529C276.671 689.294 248.727 689.294 231.492 706.529L106.665 831.356C89.4299 848.591 61.4864 848.591 44.2514 831.356C27.0163 814.121 27.0163 786.178 44.2514 768.943L262.699 550.495C279.934 533.26 279.934 505.317 262.699 488.081C245.464 470.846 217.52 470.846 200.285 488.081L169.079 519.288ZM70.257 607.708C84.6195 593.345 84.6195 570.059 70.257 555.696C55.8945 541.334 32.6082 541.334 18.2457 555.696C3.88314 570.059 3.88314 593.345 18.2457 607.708C32.6082 622.07 55.8945 622.07 70.257 607.708Z" fill="url(#paint0_linear)"/>
<path d="M387.526 800.149L392.476 805.099L387.526 800.149ZM293.906 768.943L298.856 773.892L293.906 768.943ZM101.715 524.238C121.684 544.207 154.06 544.207 174.028 524.238L164.129 514.339C149.627 528.84 126.116 528.84 111.615 514.339L101.715 524.238ZM101.715 451.925C81.7465 471.894 81.7465 504.269 101.715 524.238L111.615 514.339C97.1134 499.837 97.1133 476.326 111.615 461.824L101.715 451.925ZM451.925 101.715L101.715 451.925L111.615 461.824L461.824 111.615L451.925 101.715ZM898.72 101.715C775.341 -21.6637 575.304 -21.6637 451.925 101.715L461.824 111.615C579.736 -6.29683 770.908 -6.29685 888.82 111.615L898.72 101.715ZM898.72 548.51C1022.1 425.131 1022.1 225.094 898.72 101.715L888.82 111.615C1006.73 229.526 1006.73 420.699 888.82 538.61L898.72 548.51ZM486.096 961.133L898.72 548.51L888.82 538.61L476.197 951.234L486.096 961.133ZM413.783 961.133C433.752 981.102 466.128 981.102 486.096 961.133L476.197 951.234C461.695 965.735 438.184 965.735 423.683 951.234L413.783 961.133ZM413.783 888.82C393.815 908.789 393.815 941.165 413.783 961.133L423.683 951.234C409.181 936.732 409.181 913.221 423.683 898.72L413.783 888.82ZM444.99 857.613L413.783 888.82L423.683 898.72L454.89 867.513L444.99 857.613ZM444.99 805.099C459.491 819.601 459.491 843.112 444.99 857.613L454.89 867.513C474.858 847.544 474.858 815.168 454.89 795.2L444.99 805.099ZM392.476 805.099C406.977 790.598 430.489 790.598 444.99 805.099L454.89 795.2C434.921 775.231 402.545 775.231 382.576 795.2L392.476 805.099ZM267.649 929.926L392.476 805.099L382.576 795.2L257.749 920.027L267.649 929.926ZM195.336 929.926C215.304 949.895 247.68 949.895 267.649 929.926L257.749 920.027C243.248 934.528 219.736 934.528 205.235 920.027L195.336 929.926ZM195.336 857.613C175.367 877.582 175.367 909.958 195.336 929.926L205.235 920.027C190.734 905.526 190.734 882.014 205.235 867.513L195.336 857.613ZM288.956 763.993L195.336 857.613L205.235 867.513L298.856 773.892L288.956 763.993ZM288.956 711.479C303.457 725.98 303.457 749.492 288.956 763.993L298.856 773.892C318.824 753.924 318.824 721.548 298.856 701.579L288.956 711.479ZM236.442 711.479C250.943 696.977 274.455 696.977 288.956 711.479L298.856 701.579C278.887 681.611 246.511 681.611 226.542 701.579L236.442 711.479ZM111.615 836.306L236.442 711.479L226.542 701.579L101.715 826.407L111.615 836.306ZM39.3016 836.306C59.2703 856.275 91.646 856.275 111.615 836.306L101.715 826.407C87.2139 840.908 63.7025 840.908 49.2011 826.407L39.3016 836.306ZM39.3016 763.993C19.3329 783.962 19.3329 816.337 39.3016 836.306L49.2011 826.407C34.6998 811.905 34.6998 788.394 49.2011 773.892L39.3016 763.993ZM257.749 545.545L39.3016 763.993L49.2011 773.892L267.649 555.445L257.749 545.545ZM257.749 493.031C272.251 507.533 272.251 531.044 257.749 545.545L267.649 555.445C287.617 535.476 287.617 503.1 267.649 483.132L257.749 493.031ZM205.235 493.031C219.737 478.53 243.248 478.53 257.749 493.031L267.649 483.132C247.68 463.163 215.304 463.163 195.336 483.132L205.235 493.031ZM174.028 524.238L205.235 493.031L195.336 483.132L164.129 514.339L174.028 524.238ZM65.3073 560.646C76.9361 572.275 76.9361 591.129 65.3073 602.758L75.2068 612.657C92.3029 595.561 92.303 567.843 75.2068 550.746L65.3073 560.646ZM23.1954 560.646C34.8243 549.017 53.6784 549.017 65.3073 560.646L75.2068 550.746C58.1105 533.65 30.3921 533.65 13.2959 550.746L23.1954 560.646ZM23.1954 602.758C11.5666 591.129 11.5666 572.275 23.1954 560.646L13.2959 550.746C-3.80027 567.843 -3.80028 595.561 13.2959 612.657L23.1954 602.758ZM65.3073 602.758C53.6784 614.387 34.8243 614.387 23.1954 602.758L13.2959 612.657C30.3921 629.754 58.1106 629.753 75.2068 612.657L65.3073 602.758Z" fill="black" mask="url(#path-1-outside-1)"/>
<mask id="path-3-outside-2" maskUnits="userSpaceOnUse" x="-85.2742" y="-121.933" width="1207.74" height="1207.74" fill="black">
<rect fill="white" x="-85.2742" y="-121.933" width="1207.74" height="1207.74"/>
<path fill-rule="evenodd" clip-rule="evenodd" d="M169.079 456.875C186.314 474.11 214.257 474.11 231.492 456.875L293.906 394.461C311.141 377.226 339.084 377.226 356.319 394.461C373.554 411.696 373.554 439.64 356.319 456.875L169.079 644.115C151.844 661.35 151.844 689.294 169.079 706.529C186.314 723.764 214.257 723.764 231.492 706.529L483.248 454.773C422.261 364.643 431.674 241.09 511.487 161.277C601.97 70.7929 748.674 70.7929 839.158 161.277C929.642 251.761 929.642 398.464 839.158 488.948C759.345 568.761 635.792 578.174 545.662 517.187L356.319 706.529C339.084 723.764 339.084 751.708 356.319 768.943C373.554 786.178 401.498 786.178 418.733 768.943L543.56 644.115C560.795 626.88 588.739 626.88 605.974 644.115C623.209 661.35 623.209 689.294 605.974 706.529L574.767 737.736C557.532 754.971 557.532 782.914 574.767 800.149C592.002 817.384 619.945 817.384 637.181 800.149L893.77 543.56C1014.42 422.915 1014.42 227.31 893.77 106.665C773.125 -13.9804 577.52 -13.9803 456.875 106.665L169.079 394.461C151.844 411.696 151.844 439.64 169.079 456.875ZM538.359 888.569C552.722 874.206 552.722 850.92 538.359 836.557C523.996 822.195 500.71 822.195 486.348 836.557C471.985 850.92 471.985 874.206 486.348 888.569C500.71 902.931 523.996 902.931 538.359 888.569ZM132.671 742.937C147.033 757.299 147.033 780.586 132.671 794.948C118.308 809.311 95.0218 809.311 80.6593 794.948C66.2967 780.586 66.2967 757.299 80.6593 742.937C95.0218 728.574 118.308 728.574 132.671 742.937ZM780.603 353.193C800.217 341.869 800.217 313.557 780.603 302.233L640.848 221.545C621.233 210.221 596.715 224.377 596.715 247.026L596.715 408.401C596.715 431.05 621.233 445.205 640.848 433.881L780.603 353.193Z"/>
</mask>
<path fill-rule="evenodd" clip-rule="evenodd" d="M169.079 456.875C186.314 474.11 214.257 474.11 231.492 456.875L293.906 394.461C311.141 377.226 339.084 377.226 356.319 394.461C373.554 411.696 373.554 439.64 356.319 456.875L169.079 644.115C151.844 661.35 151.844 689.294 169.079 706.529C186.314 723.764 214.257 723.764 231.492 706.529L483.248 454.773C422.261 364.643 431.674 241.09 511.487 161.277C601.97 70.7929 748.674 70.7929 839.158 161.277C929.642 251.761 929.642 398.464 839.158 488.948C759.345 568.761 635.792 578.174 545.662 517.187L356.319 706.529C339.084 723.764 339.084 751.708 356.319 768.943C373.554 786.178 401.498 786.178 418.733 768.943L543.56 644.115C560.795 626.88 588.739 626.88 605.974 644.115C623.209 661.35 623.209 689.294 605.974 706.529L574.767 737.736C557.532 754.971 557.532 782.914 574.767 800.149C592.002 817.384 619.945 817.384 637.181 800.149L893.77 543.56C1014.42 422.915 1014.42 227.31 893.77 106.665C773.125 -13.9804 577.52 -13.9803 456.875 106.665L169.079 394.461C151.844 411.696 151.844 439.64 169.079 456.875ZM538.359 888.569C552.722 874.206 552.722 850.92 538.359 836.557C523.996 822.195 500.71 822.195 486.348 836.557C471.985 850.92 471.985 874.206 486.348 888.569C500.71 902.931 523.996 902.931 538.359 888.569ZM132.671 742.937C147.033 757.299 147.033 780.586 132.671 794.948C118.308 809.311 95.0218 809.311 80.6593 794.948C66.2967 780.586 66.2967 757.299 80.6593 742.937C95.0218 728.574 118.308 728.574 132.671 742.937ZM780.603 353.193C800.217 341.869 800.217 313.557 780.603 302.233L640.848 221.545C621.233 210.221 596.715 224.377 596.715 247.026L596.715 408.401C596.715 431.05 621.233 445.205 640.848 433.881L780.603 353.193Z" fill="url(#paint1_linear)"/>
<path d="M483.248 454.773L488.198 459.723L492.284 455.636L489.046 450.85L483.248 454.773ZM545.662 517.187L549.585 511.389L544.798 508.15L540.712 512.237L545.662 517.187ZM780.603 302.233L784.103 296.171L784.103 296.171L780.603 302.233ZM780.603 353.193L777.103 347.131L777.103 347.131L780.603 353.193ZM640.848 221.545L637.348 227.608L637.348 227.608L640.848 221.545ZM596.715 247.026L589.715 247.026L589.715 247.026L596.715 247.026ZM596.715 408.401L603.715 408.401V408.401L596.715 408.401ZM640.848 433.881L644.348 439.943L644.348 439.943L640.848 433.881ZM226.542 451.925C212.041 466.426 188.53 466.426 174.028 451.925L164.129 461.824C184.098 481.793 216.473 481.793 236.442 461.824L226.542 451.925ZM288.956 389.511L226.542 451.925L236.442 461.824L298.855 399.411L288.956 389.511ZM361.269 389.511C341.3 369.543 308.925 369.543 288.956 389.511L298.855 399.411C313.357 384.909 336.868 384.909 351.37 399.411L361.269 389.511ZM361.269 461.824C381.238 441.856 381.238 409.48 361.269 389.511L351.37 399.411C365.871 413.912 365.871 437.423 351.37 451.925L361.269 461.824ZM174.028 649.065L361.269 461.824L351.37 451.925L164.129 639.166L174.028 649.065ZM174.028 701.579C159.527 687.078 159.527 663.567 174.028 649.065L164.129 639.166C144.16 659.134 144.16 691.51 164.129 711.479L174.028 701.579ZM226.542 701.579C212.041 716.081 188.53 716.081 174.028 701.579L164.129 711.479C184.098 731.447 216.473 731.447 236.442 711.479L226.542 701.579ZM478.298 449.823L226.542 701.579L236.442 711.479L488.198 459.723L478.298 449.823ZM506.537 156.327C424.307 238.557 414.619 365.84 477.451 458.696L489.046 450.85C429.903 363.446 439.04 243.623 516.436 166.227L506.537 156.327ZM844.108 156.327C750.89 63.1095 599.754 63.1095 506.537 156.327L516.436 166.227C604.187 78.4763 746.458 78.4764 834.208 166.227L844.108 156.327ZM844.108 493.898C937.325 400.68 937.325 249.545 844.108 156.327L834.208 166.227C921.958 253.977 921.958 396.248 834.208 483.999L844.108 493.898ZM541.739 522.984C634.595 585.816 761.878 576.128 844.108 493.898L834.208 483.999C756.812 561.394 636.989 570.532 549.585 511.389L541.739 522.984ZM361.269 711.479L550.612 522.136L540.712 512.237L351.37 701.579L361.269 711.479ZM361.269 763.993C346.768 749.491 346.768 725.98 361.269 711.479L351.37 701.579C331.401 721.548 331.401 753.924 351.37 773.892L361.269 763.993ZM413.783 763.993C399.282 778.494 375.77 778.494 361.269 763.993L351.37 773.892C371.338 793.861 403.714 793.861 423.683 773.892L413.783 763.993ZM538.61 639.166L413.783 763.993L423.683 773.892L548.51 649.065L538.61 639.166ZM610.923 639.166C590.955 619.197 558.579 619.197 538.61 639.166L548.51 649.065C563.011 634.564 586.523 634.564 601.024 649.065L610.923 639.166ZM610.923 711.479C630.892 691.51 630.892 659.134 610.923 639.166L601.024 649.065C615.525 663.567 615.525 687.078 601.024 701.579L610.923 711.479ZM579.717 742.686L610.923 711.479L601.024 701.579L569.817 732.786L579.717 742.686ZM579.717 795.2C565.215 780.698 565.215 757.187 579.717 742.686L569.817 732.786C549.848 752.755 549.848 785.13 569.817 805.099L579.717 795.2ZM632.231 795.2C617.729 809.701 594.218 809.701 579.717 795.2L569.817 805.099C589.786 825.068 622.162 825.068 642.13 805.099L632.231 795.2ZM888.82 538.61L632.231 795.2L642.13 805.099L898.72 548.51L888.82 538.61ZM888.82 111.615C1006.73 229.526 1006.73 420.699 888.82 538.61L898.72 548.51C1022.1 425.131 1022.1 225.094 898.72 101.715L888.82 111.615ZM461.824 111.615C579.736 -6.29692 770.909 -6.29694 888.82 111.615L898.72 101.715C775.341 -21.6638 575.304 -21.6638 451.925 101.715L461.824 111.615ZM174.028 399.411L461.824 111.615L451.925 101.715L164.129 389.511L174.028 399.411ZM174.028 451.925C159.527 437.424 159.527 413.912 174.028 399.411L164.129 389.511C144.16 409.48 144.16 441.856 164.129 461.824L174.028 451.925ZM533.409 841.507C545.038 853.136 545.038 871.99 533.409 883.619L543.309 893.518C560.405 876.422 560.405 848.704 543.309 831.608L533.409 841.507ZM491.297 841.507C502.926 829.878 521.78 829.878 533.409 841.507L543.309 831.608C526.213 814.511 498.494 814.511 481.398 831.608L491.297 841.507ZM491.297 883.619C479.669 871.99 479.669 853.136 491.297 841.507L481.398 831.608C464.302 848.704 464.302 876.422 481.398 893.518L491.297 883.619ZM533.409 883.619C521.78 895.248 502.926 895.248 491.297 883.619L481.398 893.518C498.494 910.615 526.213 910.615 543.309 893.518L533.409 883.619ZM137.62 799.898C154.717 782.802 154.717 755.083 137.62 737.987L127.721 747.887C139.35 759.516 139.35 778.37 127.721 789.999L137.62 799.898ZM75.7095 799.898C92.8057 816.994 120.524 816.994 137.62 799.898L127.721 789.999C116.092 801.627 97.2379 801.627 85.609 789.999L75.7095 799.898ZM75.7095 737.987C58.6133 755.083 58.6133 782.802 75.7095 799.898L85.609 789.999C73.9801 778.37 73.9801 759.516 85.609 747.887L75.7095 737.987ZM137.62 737.987C120.524 720.891 92.8057 720.891 75.7095 737.987L85.609 747.887C97.2379 736.258 116.092 736.258 127.721 747.887L137.62 737.987ZM777.103 308.295C792.051 316.925 792.051 338.501 777.103 347.131L784.103 359.255C808.384 345.237 808.384 310.19 784.103 296.171L777.103 308.295ZM637.348 227.608L777.103 308.295L784.103 296.171L644.348 215.483L637.348 227.608ZM603.715 247.026C603.715 229.765 622.4 218.977 637.348 227.608L644.348 215.483C620.066 201.464 589.715 218.988 589.715 247.026L603.715 247.026ZM603.715 408.401L603.715 247.026L589.715 247.026L589.715 408.401L603.715 408.401ZM637.348 427.819C622.4 436.449 603.715 425.661 603.715 408.401L589.715 408.401C589.715 436.438 620.066 453.962 644.348 439.943L637.348 427.819ZM777.103 347.131L637.348 427.819L644.348 439.943L784.103 359.255L777.103 347.131Z" fill="white" mask="url(#path-3-outside-2)"/>
</g>
<defs>
<linearGradient id="paint0_linear" x1="675.524" y1="-111.516" x2="675.524" y2="761.951" gradientUnits="userSpaceOnUse">
<stop stop-color="#03A9F4"/>
<stop offset="1" stop-color="#00BCD4"/>
</linearGradient>
<linearGradient id="paint1_linear" x1="675.322" y1="-111.783" x2="733.196" y2="813.065" gradientUnits="userSpaceOnUse">
<stop stop-color="#673AB7"/>
<stop offset="1" stop-color="#9C27B0"/>
</linearGradient>
<clipPath id="clip0">
<rect width="1000" height="1000" fill="white"/>
</clipPath>
</defs>
</svg>
