<svg width="48" height="48" viewBox="0 0 48 48" fill="none" xmlns="http://www.w3.org/2000/svg">
<g clip-path="url(#clip0)">
<mask id="path-1-outside-1" maskUnits="userSpaceOnUse" x="-6.38296" y="-6.58893" width="61.5183" height="61.5183" fill="black">
<rect fill="white" x="-6.38296" y="-6.58893" width="61.5183" height="61.5183"/>
<path d="M5.3751 24.9135C6.1912 25.7296 7.51437 25.7296 8.33048 24.9135L9.80817 23.4358C10.6243 22.6197 11.9475 22.6197 12.7636 23.4358C13.5797 24.2519 13.5797 25.5751 12.7636 26.3912L2.41971 36.735C1.6036 37.5511 1.6036 38.8743 2.41971 39.6904C3.23582 40.5065 4.55899 40.5065 5.37509 39.6904L11.2859 33.7796C12.102 32.9635 13.4251 32.9635 14.2412 33.7796C15.0574 34.5957 15.0574 35.9189 14.2412 36.735L9.80817 41.1681C8.99206 41.9842 8.99206 43.3074 9.80817 44.1235C10.6243 44.9396 11.9474 44.9396 12.7636 44.1235L18.6743 38.2127C19.4904 37.3966 20.8136 37.3966 21.6297 38.2127C22.4458 39.0288 22.4458 40.352 21.6297 41.1681L20.152 42.6458C19.3359 43.4619 19.3359 44.7851 20.152 45.6012C20.9681 46.4173 22.2913 46.4173 23.1074 45.6012L42.6458 26.0628C48.3585 20.35 48.3585 11.0879 42.6458 5.3751C36.933 -0.337644 27.6708 -0.337643 21.9581 5.3751L5.3751 21.9581C4.55899 22.7742 4.55899 24.0974 5.3751 24.9135Z"/>
</mask>
<path d="M5.3751 24.9135C6.1912 25.7296 7.51437 25.7296 8.33048 24.9135L9.80817 23.4358C10.6243 22.6197 11.9475 22.6197 12.7636 23.4358C13.5797 24.2519 13.5797 25.5751 12.7636 26.3912L2.41971 36.735C1.6036 37.5511 1.6036 38.8743 2.41971 39.6904C3.23582 40.5065 4.55899 40.5065 5.37509 39.6904L11.2859 33.7796C12.102 32.9635 13.4251 32.9635 14.2412 33.7796C15.0574 34.5957 15.0574 35.9189 14.2412 36.735L9.80817 41.1681C8.99206 41.9842 8.99206 43.3074 9.80817 44.1235C10.6243 44.9396 11.9474 44.9396 12.7636 44.1235L18.6743 38.2127C19.4904 37.3966 20.8136 37.3966 21.6297 38.2127C22.4458 39.0288 22.4458 40.352 21.6297 41.1681L20.152 42.6458C19.3359 43.4619 19.3359 44.7851 20.152 45.6012C20.9681 46.4173 22.2913 46.4173 23.1074 45.6012L42.6458 26.0628C48.3585 20.35 48.3585 11.0879 42.6458 5.3751C36.933 -0.337644 27.6708 -0.337643 21.9581 5.3751L5.3751 21.9581C4.55899 22.7742 4.55899 24.0974 5.3751 24.9135Z" fill="#39BAF4"/>
<path d="M8.33048 24.9135L9.03759 25.6206L8.33048 24.9135ZM14.2412 36.735L14.9484 37.4421L14.2412 36.735ZM12.7636 44.1235L12.0564 43.4164L12.7636 44.1235ZM9.80817 41.1681L9.10106 40.461L9.80817 41.1681ZM9.80817 23.4358L9.10107 22.7287L9.80817 23.4358ZM18.6743 38.2127L19.3814 38.9198L18.6743 38.2127ZM7.62337 24.2064C7.19779 24.632 6.50779 24.632 6.0822 24.2064L4.66799 25.6206C5.87462 26.8272 7.83096 26.8272 9.03759 25.6206L7.62337 24.2064ZM6.0822 24.2064C5.65662 23.7808 5.65662 23.0908 6.0822 22.6652L4.66799 21.251C3.46136 22.4576 3.46136 24.414 4.66799 25.6206L6.0822 24.2064ZM13.5341 34.4867C13.9597 34.9123 13.9597 35.6023 13.5341 36.0279L14.9484 37.4421C16.155 36.2355 16.155 34.2792 14.9484 33.0725L13.5341 34.4867ZM11.993 34.4867C12.4186 34.0612 13.1086 34.0612 13.5341 34.4867L14.9484 33.0725C13.7417 31.8659 11.7854 31.8659 10.5788 33.0725L11.993 34.4867ZM12.0564 43.4164C11.6309 43.842 10.9409 43.842 10.5153 43.4164L9.10106 44.8306C10.3077 46.0372 12.264 46.0372 13.4707 44.8306L12.0564 43.4164ZM10.5153 43.4164C10.0897 42.9908 10.0897 42.3008 10.5153 41.8752L9.10106 40.461C7.89443 41.6676 7.89443 43.624 9.10106 44.8306L10.5153 43.4164ZM4.66799 38.9833C4.24241 39.4089 3.5524 39.4089 3.12682 38.9833L1.7126 40.3975C2.91923 41.6041 4.87557 41.6041 6.0822 40.3975L4.66799 38.9833ZM3.12682 38.9833C2.70123 38.5577 2.70123 37.8677 3.12682 37.4421L1.7126 36.0279C0.505973 37.2345 0.505973 39.1909 1.7126 40.3975L3.12682 38.9833ZM12.0565 24.1429C12.482 24.5685 12.482 25.2585 12.0564 25.6841L13.4707 27.0983C14.6773 25.8916 14.6773 23.9353 13.4707 22.7287L12.0565 24.1429ZM10.5153 24.1429C10.9409 23.7173 11.6309 23.7173 12.0565 24.1429L13.4707 22.7287C12.264 21.522 10.3077 21.522 9.10107 22.7287L10.5153 24.1429ZM20.9226 38.9198C21.3482 39.3454 21.3482 40.0354 20.9226 40.461L22.3368 41.8752C23.5434 40.6686 23.5434 38.7122 22.3368 37.5056L20.9226 38.9198ZM19.3814 38.9198C19.807 38.4942 20.497 38.4942 20.9226 38.9198L22.3368 37.5056C21.1302 36.299 19.1738 36.299 17.9672 37.5056L19.3814 38.9198ZM22.4003 44.8941C21.9747 45.3196 21.2847 45.3196 20.8591 44.8941L19.4449 46.3083C20.6515 47.5149 22.6079 47.5149 23.8145 46.3083L22.4003 44.8941ZM20.8591 44.8941C20.4335 44.4685 20.4335 43.7785 20.8591 43.3529L19.4449 41.9387C18.2383 43.1453 18.2383 45.1016 19.4449 46.3083L20.8591 44.8941ZM9.03759 25.6206L10.5153 24.1429L9.10107 22.7287L7.62337 24.2064L9.03759 25.6206ZM12.0564 25.6841L1.7126 36.0279L3.12682 37.4421L13.4707 27.0983L12.0564 25.6841ZM6.0822 40.3975L11.993 34.4867L10.5788 33.0725L4.66799 38.9833L6.0822 40.3975ZM13.5341 36.0279L9.10106 40.461L10.5153 41.8752L14.9484 37.4421L13.5341 36.0279ZM13.4707 44.8306L19.3814 38.9198L17.9672 37.5056L12.0564 43.4164L13.4707 44.8306ZM20.9226 40.461L19.4449 41.9387L20.8591 43.3529L22.3368 41.8752L20.9226 40.461ZM23.8145 46.3083L43.3529 26.7699L41.9387 25.3557L22.4003 44.8941L23.8145 46.3083ZM21.251 4.668L4.66799 21.251L6.0822 22.6652L22.6652 6.08221L21.251 4.668ZM41.9387 6.08221C47.2609 11.4044 47.2609 20.0335 41.9387 25.3557L43.3529 26.7699C49.4562 20.6666 49.4562 10.7713 43.3529 4.668L41.9387 6.08221ZM22.6652 6.08221C27.9874 0.759987 36.6164 0.759987 41.9387 6.08221L43.3529 4.668C37.2496 -1.43528 27.3543 -1.43527 21.251 4.668L22.6652 6.08221Z" fill="white" mask="url(#path-1-outside-1)"/>
<path fill-rule="evenodd" clip-rule="evenodd" d="M11.2859 21.9581C10.4698 22.7743 9.14658 22.7743 8.33047 21.9581C7.51437 21.142 7.51437 19.8189 8.33047 19.0028L21.9581 5.37516C27.6708 -0.33759 36.933 -0.337589 42.6458 5.37516C48.3585 11.0879 48.3585 20.3501 42.6458 26.0628L30.4959 38.2128C29.6797 39.0289 28.3566 39.0289 27.5405 38.2128C26.7244 37.3967 26.7244 36.0735 27.5405 35.2574L29.0182 33.7797C29.8343 32.9636 29.8343 31.6404 29.0182 30.8243C28.2021 30.0082 26.8789 30.0082 26.0628 30.8243L20.152 36.7351C19.3359 37.5512 18.0127 37.5512 17.1966 36.7351C16.3805 35.919 16.3805 34.5958 17.1966 33.7797L28.9906 21.9857C31.6671 23.401 35.0595 22.9823 37.3123 20.7294C40.0795 17.9622 40.0795 13.4757 37.3123 10.7085C34.5452 7.94134 30.0586 7.94134 27.2914 10.7085C25.0386 12.9614 24.6199 16.3538 26.0352 19.0303L11.2859 33.7797C10.4698 34.5958 9.14658 34.5958 8.33047 33.7797C7.51437 32.9636 7.51437 31.6404 8.33047 30.8243L17.1966 21.9581C18.0127 21.142 18.0127 19.8189 17.1966 19.0028C16.3805 18.1867 15.0574 18.1867 14.2412 19.0028L11.2859 21.9581Z" fill="#673AB7"/>
</g>
<defs>
<clipPath id="clip0">
<rect width="48" height="48" fill="white"/>
</clipPath>
</defs>
</svg>
