<svg width="355" height="319" viewBox="0 0 355 319" fill="none" xmlns="http://www.w3.org/2000/svg">
<mask id="path-1-outside-1" maskUnits="userSpaceOnUse" x="0.381975" y="8.21454" width="354" height="311" fill="black">
<rect fill="white" x="0.381975" y="8.21454" width="354" height="311"/>
<path fill-rule="evenodd" clip-rule="evenodd" d="M283.625 64.067C280.354 72.8842 278.493 80.9855 277.465 87.2284C259.731 66.4163 238.66 48.8962 216.039 40.8597L216.593 41.7439C222.927 51.8455 230.017 63.151 235.44 75.4125C222.785 69.1585 211.432 64.4915 200.802 60.6535C189.366 50.1312 174.86 41.1338 156.79 34.6555C148.69 31.7515 133.623 30.0478 116.67 31.6648C104.882 26.2638 92.0948 19.4186 77.6095 10.2145C82.7621 18.508 87.5039 27.2942 91.7668 36.4478C69.5251 43.086 48.1287 56.6386 37.8374 81.3869C57.0172 66.72 81.3745 61.0657 103.046 64.8723C119.339 114.006 121.778 169.271 101.679 214.697C71.3236 231.206 33.9266 237.275 4.38198 230.078C20.8912 265.226 58.7048 281.453 97.3573 285.061C90.6743 297.603 82.9276 308.866 77.6095 315.385C101.567 308.741 120.153 297.359 138.171 284.384C161.512 281.452 182.227 274.312 195.025 264.595C195.025 264.595 198.742 289.554 172.721 310.795C218.791 300.719 258.211 276.062 283.17 254.289C300.488 239.183 311.929 223.413 320.149 207.191C330.027 206.51 340.496 206.15 351.618 206.15C344.285 180.109 331.491 160.682 319.436 142.378L319.434 142.376C317.472 139.397 315.53 136.447 313.633 133.504C312.629 131.945 311.599 130.36 310.552 128.752C298.411 110.086 284.149 88.1583 283.625 64.067Z"/>
</mask>
<path d="M277.465 87.2284L275.94 88.5285L278.741 91.8166L279.443 87.554L277.465 87.2284ZM283.625 64.067L285.629 64.0234L281.745 63.3699L283.625 64.067ZM216.039 40.8597L216.71 38.9709L211.279 37.0414L214.34 41.9245L216.039 40.8597ZM216.593 41.7439L214.895 42.8087L214.895 42.8088L216.593 41.7439ZM235.44 75.4125L234.552 77.2095L239.511 79.6602L237.273 74.6016L235.44 75.4125ZM200.802 60.6535L199.445 62.1286L199.742 62.4019L200.121 62.5389L200.802 60.6535ZM156.79 34.6555L157.466 32.7686L157.466 32.7686L156.79 34.6555ZM116.67 31.6648L115.835 33.4871L116.324 33.7113L116.86 33.6602L116.67 31.6648ZM77.6095 10.2145L78.6845 8.52267L75.9068 11.2724L77.6095 10.2145ZM91.7668 36.4478L92.3401 38.3686L94.5635 37.705L93.5839 35.6015L91.7668 36.4478ZM37.8374 81.3869L35.9865 80.6172L33.1156 87.5211L39.055 82.9792L37.8374 81.3869ZM103.046 64.8723L104.949 64.2413L104.572 63.1051L103.393 62.898L103.046 64.8723ZM101.679 214.697L102.637 216.458L103.236 216.132L103.512 215.508L101.679 214.697ZM4.38198 230.078L4.85643 228.13L0.786944 227.139L2.56763 230.93L4.38198 230.078ZM97.3573 285.061L99.1263 286.004L100.543 283.345L97.5436 283.066L97.3573 285.061ZM77.6095 315.385L76.0563 314.118L72.0731 319L78.1451 317.316L77.6095 315.385ZM138.171 284.384L137.921 282.396L137.414 282.459L136.999 282.758L138.171 284.384ZM195.025 264.595L197.007 264.3L196.509 260.951L193.812 262.999L195.025 264.595ZM172.721 310.795L171.453 309.243L173.149 312.754L172.721 310.795ZM283.17 254.289L281.853 252.779L281.853 252.779L283.17 254.289ZM320.149 207.191L320.011 205.191L318.875 205.269L318.361 206.284L320.149 207.191ZM351.618 206.15V208.154H354.265L353.548 205.607L351.618 206.15ZM319.436 142.378L317.756 143.472L317.762 143.481L319.436 142.378ZM319.434 142.376L321.114 141.282L321.108 141.274L319.434 142.376ZM313.633 133.504L311.948 134.589L311.948 134.589L313.633 133.504ZM310.552 128.752L308.872 129.845L308.872 129.845L310.552 128.752ZM279.443 87.554C280.454 81.4156 282.286 73.4415 285.504 64.7641L281.745 63.3699C278.423 72.3268 276.532 80.5553 275.487 86.9028L279.443 87.554ZM215.368 42.7486C237.527 50.621 258.323 67.8547 275.94 88.5285L278.991 85.9283C261.139 64.9779 239.793 47.1714 216.71 38.9709L215.368 42.7486ZM218.291 40.6791L217.737 39.7949L214.34 41.9245L214.895 42.8087L218.291 40.6791ZM237.273 74.6016C231.782 62.1877 224.615 50.7637 218.291 40.679L214.895 42.8088C221.24 52.9273 228.251 64.1144 233.607 76.2233L237.273 74.6016ZM200.121 62.5389C210.689 66.3543 221.972 70.9924 234.552 77.2095L236.328 73.6154C223.599 67.3245 212.176 62.6288 201.483 58.7681L200.121 62.5389ZM156.113 36.5424C173.944 42.9351 188.216 51.797 199.445 62.1286L202.159 59.1784C190.516 48.4655 175.775 39.3326 157.466 32.7686L156.113 36.5424ZM116.86 33.6602C133.638 32.06 148.384 33.7714 156.113 36.5424L157.466 32.7686C148.996 29.7317 133.608 28.0356 116.479 29.6693L116.86 33.6602ZM76.5344 11.9064C91.0928 21.1569 103.96 28.0462 115.835 33.4871L117.505 29.8424C105.804 24.4813 93.0968 17.6803 78.6845 8.52267L76.5344 11.9064ZM93.5839 35.6015C89.2883 26.3776 84.5085 17.5206 79.3121 9.1567L75.9068 11.2724C81.0157 19.4954 85.7195 28.2108 89.9497 37.294L93.5839 35.6015ZM39.6882 82.1566C49.6717 58.1487 70.4525 44.9011 92.3401 38.3686L91.1935 34.527C68.5977 41.2709 46.5858 55.1286 35.9865 80.6172L39.6882 82.1566ZM103.393 62.898C81.1603 58.9929 56.2374 64.7929 36.6197 79.7946L39.055 82.9792C57.797 68.6471 81.5886 63.1386 102.7 66.8465L103.393 62.898ZM103.512 215.508C123.87 169.497 121.347 113.692 104.949 64.2413L101.144 65.5032C117.332 114.319 119.686 169.046 99.8459 213.886L103.512 215.508ZM3.90752 232.025C34.0121 239.359 71.9177 233.165 102.637 216.458L100.721 212.936C70.7296 229.248 33.8411 235.191 4.85643 228.13L3.90752 232.025ZM97.5436 283.066C59.2153 279.488 22.2699 263.447 6.19632 229.225L2.56763 230.93C19.5125 267.006 58.1943 283.419 97.171 287.057L97.5436 283.066ZM79.1627 316.652C84.5678 310.026 92.3857 298.654 99.1263 286.004L95.5882 284.119C88.9629 296.552 81.2874 307.705 76.0563 314.118L79.1627 316.652ZM136.999 282.758C119.064 295.673 100.702 306.901 77.0738 313.453L78.1451 317.316C102.433 310.581 121.242 299.046 139.342 286.011L136.999 282.758ZM193.812 262.999C181.401 272.423 161.073 279.487 137.921 282.396L138.42 286.373C161.952 283.417 183.053 276.202 196.237 266.192L193.812 262.999ZM173.989 312.348C187.36 301.433 193.15 289.501 195.57 280.236C196.777 275.615 197.142 271.674 197.203 268.87C197.233 267.468 197.188 266.349 197.133 265.569C197.106 265.179 197.076 264.873 197.052 264.659C197.04 264.552 197.03 264.468 197.022 264.408C197.018 264.378 197.015 264.354 197.013 264.336C197.011 264.327 197.01 264.319 197.009 264.313C197.009 264.31 197.008 264.308 197.008 264.305C197.008 264.304 197.008 264.303 197.008 264.302C197.008 264.301 197.007 264.3 195.025 264.595C193.042 264.89 193.042 264.889 193.042 264.888C193.042 264.888 193.042 264.887 193.042 264.887C193.041 264.886 193.041 264.886 193.041 264.886C193.041 264.886 193.042 264.888 193.042 264.891C193.043 264.897 193.045 264.909 193.047 264.926C193.051 264.962 193.059 265.021 193.068 265.102C193.086 265.264 193.111 265.516 193.134 265.849C193.181 266.517 193.222 267.514 193.195 268.783C193.14 271.323 192.808 274.949 191.691 279.223C189.465 287.748 184.103 298.916 171.453 309.243L173.989 312.348ZM281.853 252.779C257.082 274.387 217.957 298.85 172.293 308.837L173.149 312.754C219.625 302.589 259.341 277.737 284.488 255.8L281.853 252.779ZM318.361 206.284C310.251 222.289 298.966 237.85 281.853 252.779L284.488 255.8C302.01 240.515 313.606 224.537 321.937 208.097L318.361 206.284ZM351.618 204.145C340.453 204.145 329.938 204.507 320.011 205.191L320.287 209.19C330.116 208.513 340.54 208.154 351.618 208.154V204.145ZM317.762 143.481C329.825 161.797 342.45 180.987 349.689 206.693L353.548 205.607C346.12 179.23 333.157 159.567 321.11 141.276L317.762 143.481ZM317.755 143.47L317.756 143.472L321.115 141.284L321.114 141.282L317.755 143.47ZM311.948 134.589C313.851 137.543 315.799 140.501 317.76 143.479L321.108 141.274C319.145 138.293 317.208 135.352 315.319 132.418L311.948 134.589ZM308.872 129.845C309.919 131.454 310.947 133.035 311.948 134.589L315.319 132.418C314.311 130.855 313.278 129.267 312.233 127.659L308.872 129.845ZM281.621 64.1106C282.159 88.8737 296.802 111.287 308.872 129.845L312.233 127.659C300.021 108.885 286.138 87.4429 285.629 64.0234L281.621 64.1106Z" fill="black" mask="url(#path-1-outside-1)"/>
<path d="M141.69 243.678C158.461 177.411 146.178 102.812 141.69 81.0983C196.239 87.4766 268.749 122.82 306.59 181.433C257.359 183.466 173.736 206.419 141.69 243.678Z" fill="white"/>
<path d="M283.17 254.289C308.129 232.517 320.881 209.367 329.377 185.47C321.943 144.58 274.097 61.4857 216.039 40.8597C233.139 68.1384 256.346 104.374 236.977 144.58C236.977 104.222 216.039 55.8971 156.79 34.6555C134.603 26.7011 60.141 27.752 37.8374 81.3869C82.9756 46.8694 156.79 62.2695 156.79 133.429C156.79 204.588 64.3893 244.696 4.38197 230.078C37.3063 300.175 154.962 295.015 195.025 264.595C195.025 264.595 198.742 289.554 172.721 310.795C218.791 300.719 258.211 276.062 283.17 254.289Z" fill="#03A9F4" stroke="black" stroke-width="2.00452"/>
<path fill-rule="evenodd" clip-rule="evenodd" d="M283.625 64.067C277.444 80.7303 276.296 94.8369 276.296 98.6743C228.956 68.4528 198.51 59.2939 169.128 50.455C141.905 42.2658 115.596 34.3512 77.6095 10.2145C124.211 85.2235 137.211 200.535 66.2094 263.441C89.4167 261.149 110.349 250.116 110.349 250.116C106.863 273.053 87.7881 302.908 77.6095 315.385C108.724 306.757 130.777 290.137 154.293 272.415C195.96 241.013 242.22 206.15 351.618 206.15C344.285 180.109 331.491 160.682 319.436 142.378C317.473 139.398 315.53 136.448 313.633 133.504C312.629 131.945 311.599 130.36 310.552 128.752C298.411 110.086 284.149 88.1583 283.625 64.067ZM141.69 81.0983C146.178 102.812 158.461 177.411 141.69 243.678C173.736 206.419 257.359 183.466 306.59 181.433C268.749 122.82 196.239 87.4766 141.69 81.0983Z" fill="#673AB7"/>
<path d="M276.296 98.6743L275.757 99.5191L277.298 100.503V98.6743H276.296ZM283.625 64.067L284.627 64.0452L282.685 63.7184L283.625 64.067ZM169.128 50.455L169.417 49.4953L169.417 49.4953L169.128 50.455ZM77.6095 10.2145L78.147 9.3686L76.7581 10.7435L77.6095 10.2145ZM66.2094 263.441L65.5448 262.691L63.2291 264.742L66.3079 264.438L66.2094 263.441ZM110.349 250.116L111.34 250.267L111.638 248.304L109.882 249.23L110.349 250.116ZM77.6095 315.385L76.8329 314.751L74.8413 317.192L77.8773 316.351L77.6095 315.385ZM154.293 272.415L154.896 273.215L154.896 273.215L154.293 272.415ZM351.618 206.15V207.152H352.941L352.583 205.878L351.618 206.15ZM319.436 142.378L318.599 142.929L318.599 142.929L319.436 142.378ZM313.633 133.504L312.791 134.047L312.791 134.047L313.633 133.504ZM310.552 128.752L309.712 129.299L309.712 129.299L310.552 128.752ZM141.69 243.678L140.719 243.432L142.45 244.332L141.69 243.678ZM141.69 81.0983L141.807 80.1029L140.428 79.9416L140.709 81.3012L141.69 81.0983ZM306.59 181.433L306.632 182.435L308.383 182.362L307.432 180.89L306.59 181.433ZM277.298 98.6743C277.298 94.9486 278.428 80.9606 284.565 64.4155L282.685 63.7184C276.461 80.4999 275.294 94.7253 275.294 98.6743H277.298ZM168.839 51.4148C198.184 60.2425 228.53 69.3696 275.757 99.5191L276.836 97.8295C229.383 67.536 198.836 58.3454 169.417 49.4953L168.839 51.4148ZM77.0719 11.0605C115.175 35.2716 141.59 43.2175 168.839 51.4148L169.417 49.4953C142.221 41.314 116.016 33.4308 78.147 9.3686L77.0719 11.0605ZM66.874 264.191C102.645 232.499 117.214 187.636 117.013 141.362C116.812 95.0962 101.852 47.336 78.4608 9.68562L76.7581 10.7435C99.9684 48.102 114.809 95.5022 115.008 141.371C115.207 187.231 100.775 231.477 65.5448 262.691L66.874 264.191ZM110.349 250.116C109.882 249.23 109.882 249.23 109.882 249.23C109.882 249.23 109.882 249.23 109.882 249.23C109.881 249.23 109.88 249.23 109.879 249.231C109.877 249.232 109.874 249.234 109.869 249.236C109.86 249.241 109.846 249.249 109.826 249.259C109.788 249.279 109.729 249.309 109.652 249.349C109.497 249.428 109.264 249.546 108.959 249.697C108.35 249.999 107.45 250.435 106.297 250.966C103.99 252.027 100.671 253.468 96.6307 254.981C88.5424 258.008 77.597 261.309 66.1109 262.443L66.3079 264.438C78.0291 263.281 89.1536 259.92 97.3334 256.858C101.427 255.326 104.791 253.865 107.135 252.786C108.307 252.247 109.224 251.803 109.85 251.493C110.162 251.338 110.402 251.216 110.565 251.133C110.646 251.091 110.708 251.059 110.751 251.037C110.772 251.026 110.788 251.018 110.799 251.012C110.804 251.009 110.808 251.007 110.811 251.006C110.813 251.005 110.814 251.004 110.815 251.004C110.815 251.003 110.816 251.003 110.816 251.003C110.816 251.003 110.817 251.003 110.349 250.116ZM78.3861 316.018C83.5176 309.728 90.865 299.093 97.3691 287.152C103.866 275.226 109.571 261.907 111.34 250.267L109.358 249.966C107.641 261.262 102.066 274.339 95.6088 286.194C89.1593 298.034 81.88 308.565 76.8329 314.751L78.3861 316.018ZM153.689 271.614C130.161 289.346 108.249 305.849 77.3416 314.419L77.8773 316.351C109.199 307.665 131.392 290.928 154.896 273.215L153.689 271.614ZM351.618 205.148C296.807 205.148 257.759 213.882 227.172 226.581C196.593 239.276 174.521 255.915 153.689 271.614L154.896 273.215C175.732 257.513 197.623 241.019 227.94 228.432C258.249 215.849 297.031 207.152 351.618 207.152V205.148ZM318.599 142.929C330.658 161.24 343.368 180.548 350.653 206.421L352.583 205.878C345.203 179.669 332.324 160.125 320.273 141.827L318.599 142.929ZM312.791 134.047C314.691 136.996 316.637 139.95 318.599 142.929L320.273 141.827C318.31 138.846 316.369 135.9 314.476 132.961L312.791 134.047ZM309.712 129.299C310.759 130.907 311.788 132.49 312.791 134.047L314.476 132.961C313.47 131.4 312.438 129.814 311.393 128.206L309.712 129.299ZM282.623 64.0888C283.154 88.516 297.607 110.687 309.712 129.299L311.393 128.206C299.216 109.485 285.144 87.8006 284.627 64.0452L282.623 64.0888ZM142.662 243.924C159.49 177.428 147.166 102.643 142.672 80.8955L140.709 81.3012C145.189 102.982 157.431 177.394 140.719 243.432L142.662 243.924ZM306.549 180.432C281.824 181.453 248.515 187.721 217.371 198.398C186.257 209.064 157.131 224.188 140.93 243.024L142.45 244.332C158.295 225.909 187.003 210.927 218.021 200.294C249.007 189.671 282.125 183.446 306.632 182.435L306.549 180.432ZM141.574 82.0938C195.883 88.4441 268.099 123.66 305.748 181.977L307.432 180.89C269.4 121.98 196.595 86.5092 141.807 80.1029L141.574 82.0938Z" fill="black"/>
<path d="M146.195 235.383C159.276 174.099 149.523 108.27 144.83 84.0236C197.203 91.2217 264.92 124.653 302.076 179.161C277.729 180.702 246.334 186.879 216.883 196.975C189.405 206.395 163.282 219.34 146.195 235.383Z" stroke="white" stroke-width="5.01129"/>
<path d="M141.69 243.678C158.461 177.411 146.178 102.812 141.69 81.0983C196.239 87.4766 268.749 122.82 306.59 181.433C257.359 183.466 173.736 206.419 141.69 243.678Z" stroke="black" stroke-width="2.00452"/>
<path d="M297.472 176.976C260.562 179.075 186.418 195.698 150.132 228.566C155.934 200.937 156.472 174.511 154.968 150.039C159.001 133.496 156.278 113.579 149.892 99.791C149.14 94.3958 148.218 90.2062 147.899 87.0195C173.749 90.948 205.347 102.232 234.396 119.796C236.366 127.711 236.996 140.656 236.996 144.551C238.999 140.953 242.597 129.973 243.265 125.337C264.279 139.276 283.535 156.73 297.472 176.976Z" stroke="black" stroke-width="2.00452"/>
<path d="M285.63 54.3386V64.0281L283.132 65.0046L281.753 63.3787L285.63 54.3386Z" fill="black"/>
<path d="M68.1428 0L75.9105 11.274H78.8364L78.6823 8.52823L68.1428 0Z" fill="black"/>
<path d="M173.869 309.986L171.46 309.24L163.375 315.321L173.148 312.752L173.869 309.986Z" fill="black"/>
</svg>
