<svg width="450" height="500" viewBox="0 0 450 500" fill="none" xmlns="http://www.w3.org/2000/svg">
<g clip-path="url(#clip0)">
<path d="M34.9595 45.3499L36.9144 50.1583L41.2176 53.0606L37.2487 56.4057L35.8182 61.3952L31.4104 58.6542L26.2231 58.8356L27.4678 53.7965L25.6923 48.9191L30.8694 48.5457L34.9595 45.3499Z" fill="white" fill-opacity="0.12"/>
<path d="M35.654 263.411L29.75 263.63L27.5138 269.099L25.4805 263.552L19.5886 263.115L24.236 259.467L22.8307 253.728L27.7363 257.021L32.7597 253.911L31.1441 259.594L35.654 263.411Z" fill="white" fill-opacity="0.12"/>
<path d="M432.568 36.4269L426.664 36.6465L424.428 42.1151L422.394 36.5678L416.503 36.131L421.15 32.483L419.745 26.7444L424.65 30.0371L429.674 26.9273L428.058 32.6103L432.568 36.4269Z" fill="white" fill-opacity="0.12"/>
<path d="M447.221 127.547L450.598 131.348L455.255 133.385L452.684 137.77L452.187 142.829L447.221 141.739L442.256 142.829L441.758 137.77L439.187 133.385L443.845 131.348L447.221 127.547Z" fill="white" fill-opacity="0.12"/>
<path d="M11.5892 487.645L10.7787 493.046L14.336 497.189L8.94963 498.087L6.10861 502.75L3.59015 497.905L-1.72297 496.644L2.10688 492.752L1.66421 487.309L6.54966 489.748L11.5892 487.645Z" fill="white" fill-opacity="0.12"/>
<path d="M417.921 379.483L417.111 384.884L420.668 389.027L415.282 389.925L412.441 394.588L409.922 389.743L404.609 388.482L408.439 384.589L407.996 379.147L412.882 381.586L417.921 379.483Z" fill="white" fill-opacity="0.12"/>
<path d="M33.17 387.963L31.0449 382.451L25.1465 382.112L29.7327 378.387L28.2324 372.673L33.1919 375.883L38.163 372.691L36.642 378.4L41.2147 382.141L35.3151 382.458L33.17 387.963Z" fill="white" fill-opacity="0.12"/>
<path d="M419.244 241.926L413.34 242.145L411.104 247.614L409.07 242.066L403.179 241.63L407.826 237.982L406.421 232.243L411.326 235.536L416.35 232.426L414.734 238.109L419.244 241.926Z" fill="white" fill-opacity="0.12"/>
<path d="M425.774 480.741L429.15 484.541L433.808 486.578L431.237 490.963L430.739 496.022L425.774 494.932L420.808 496.022L420.311 490.963L417.74 486.578L422.397 484.541L425.774 480.741Z" fill="white" fill-opacity="0.12"/>
<path d="M136.657 461.213L134.56 465.961L135.465 471.072L130.302 470.545L125.721 472.985L124.626 467.912L120.89 464.309L125.377 461.7L127.649 457.033L131.516 460.495L136.657 461.213Z" fill="white" fill-opacity="0.12"/>
<path d="M348.507 55.618L351.922 51.6757L352.399 46.4818L357.203 48.5114L362.29 47.3601L361.845 52.5568L364.512 57.0391L359.432 58.2212L355.993 62.1428L353.299 57.6767L348.507 55.618Z" fill="white" fill-opacity="0.12"/>
<path d="M210.423 56.4244L213.838 52.482L214.315 47.2881L219.119 49.3177L224.206 48.1664L223.761 53.3631L226.428 57.8454L221.348 59.0276L217.909 62.9491L215.215 58.483L210.423 56.4244Z" fill="white" fill-opacity="0.12"/>
<path d="M60.9782 137.477L60.1677 142.877L63.725 147.02L58.3387 147.918L55.4977 152.582L52.9792 147.736L47.6661 146.475L51.4959 142.583L51.0533 137.14L55.9387 139.58L60.9782 137.477Z" fill="white" fill-opacity="0.12"/>
<path d="M293.932 449.366L288.028 449.586L285.791 455.054L283.758 449.507L277.866 449.07L282.514 445.422L281.108 439.684L286.014 442.976L291.037 439.866L289.422 445.549L293.932 449.366Z" fill="white" fill-opacity="0.12"/>
<path d="M137.664 16.4435L131.76 16.6631L129.524 22.1317L127.49 16.5844L121.598 16.1476L126.246 12.4996L124.841 6.76104L129.746 10.0537L134.77 6.94395L133.154 12.6269L137.664 16.4435Z" fill="white" fill-opacity="0.12"/>
</g>
<defs>
<clipPath id="clip0">
<rect width="450" height="500" fill="white"/>
</clipPath>
</defs>
</svg>
