<svg width="1440" height="900" viewBox="0 0 1440 900" fill="none" xmlns="http://www.w3.org/2000/svg">
<g style="mix-blend-mode:soft-light" opacity="0.24" clip-path="url(#clip0)">
<path d="M822.919 504.691L822.151 509.805L825.52 513.729L820.419 514.579L817.729 518.995L815.344 514.407L810.312 513.213L813.939 509.526L813.52 504.372L818.146 506.682L822.919 504.691Z" fill="white"/>
<path d="M485.062 546.27L486.913 550.824L490.989 553.572L487.23 556.74L485.875 561.465L481.701 558.87L476.788 559.041L477.967 554.269L476.286 549.65L481.189 549.297L485.062 546.27Z" fill="white"/>
<path d="M272.994 225.963L276.228 222.23L276.68 217.311L281.23 219.233L286.048 218.143L285.626 223.064L288.152 227.309L283.341 228.428L280.084 232.142L277.533 227.913L272.994 225.963Z" fill="white"/>
<path d="M526.735 102.785L521.144 102.993L519.026 108.172L517.101 102.919L511.521 102.505L515.922 99.0504L514.591 93.6158L519.237 96.7341L523.994 93.7891L522.464 99.1709L526.735 102.785Z" fill="white"/>
<path d="M91.8537 427.444L93.705 431.997L97.7802 434.746L94.0216 437.914L92.6669 442.639L88.4926 440.043L83.5801 440.215L84.7589 435.443L83.0775 430.824L87.9803 430.47L91.8537 427.444Z" fill="white"/>
<path d="M286.994 345.963L290.228 342.23L290.68 337.311L295.23 339.233L300.048 338.143L299.626 343.064L302.152 347.309L297.341 348.428L294.084 352.142L291.533 347.913L286.994 345.963Z" fill="white"/>
<path d="M443.711 505.864L442.943 510.979L446.312 514.902L441.211 515.753L438.52 520.169L436.135 515.58L431.104 514.386L434.731 510.7L434.312 505.546L438.938 507.856L443.711 505.864Z" fill="white"/>
<path d="M105.854 547.444L107.705 551.997L111.78 554.746L108.022 557.914L106.667 562.639L102.493 560.043L97.5801 560.215L98.7589 555.443L97.0775 550.824L101.98 550.47L105.854 547.444Z" fill="white"/>
<path d="M192.994 515.963L196.228 512.23L196.68 507.311L201.23 509.233L206.048 508.143L205.626 513.064L208.152 517.309L203.341 518.428L200.084 522.142L197.533 517.913L192.994 515.963Z" fill="white"/>
<path d="M360.353 468.785L354.762 468.993L352.644 474.172L350.719 468.919L345.139 468.505L349.54 465.05L348.209 459.616L352.855 462.734L357.612 459.789L356.082 465.171L360.353 468.785Z" fill="white"/>
<path d="M631.792 564.173L634.989 567.772L639.4 569.701L636.965 573.855L636.494 578.646L631.792 577.613L627.089 578.646L626.618 573.855L624.183 569.701L628.594 567.772L631.792 564.173Z" fill="white"/>
<path d="M349.711 675.864L348.943 680.979L352.312 684.902L347.211 685.752L344.52 690.169L342.135 685.58L337.104 684.386L340.731 680.7L340.312 675.546L344.938 677.856L349.711 675.864Z" fill="white"/>
<path d="M11.8537 717.444L13.705 721.997L17.7803 724.746L14.0216 727.914L12.6669 732.639L8.49264 730.043L3.58011 730.215L4.75889 725.443L3.0775 720.824L7.9803 720.47L11.8537 717.444Z" fill="white"/>
<path d="M216.994 652.963L220.228 649.23L220.68 644.311L225.23 646.233L230.048 645.143L229.626 650.064L232.152 654.309L227.341 655.428L224.084 659.142L221.533 654.913L216.994 652.963Z" fill="white"/>
<path d="M384.353 605.785L378.762 605.993L376.644 611.172L374.719 605.919L369.139 605.505L373.54 602.05L372.209 596.616L376.855 599.734L381.612 596.789L380.082 602.171L384.353 605.785Z" fill="white"/>
<path d="M655.792 701.173L658.989 704.772L663.4 706.701L660.965 710.855L660.494 715.646L655.792 714.613L651.089 715.646L650.618 710.855L648.183 706.701L652.594 704.772L655.792 701.173Z" fill="white"/>
<path d="M373.711 812.864L372.943 817.979L376.312 821.902L371.211 822.752L368.52 827.169L366.135 822.58L361.104 821.386L364.731 817.7L364.312 812.546L368.938 814.856L373.711 812.864Z" fill="white"/>
<path d="M35.8537 854.444L37.705 858.997L41.7802 861.746L38.0216 864.914L36.6669 869.639L32.4926 867.043L27.5801 867.215L28.7589 862.443L27.0775 857.824L31.9803 857.47L35.8537 854.444Z" fill="white"/>
<path d="M695.994 489.963L699.228 486.23L699.68 481.311L704.23 483.233L709.048 482.143L708.626 487.064L711.152 491.309L706.341 492.428L703.084 496.142L700.533 491.913L695.994 489.963Z" fill="white"/>
<path d="M1134.79 538.173L1137.99 541.772L1142.4 543.701L1139.97 547.855L1139.49 552.646L1134.79 551.613L1130.09 552.646L1129.62 547.855L1127.18 543.701L1131.59 541.772L1134.79 538.173Z" fill="white"/>
<path d="M852.711 649.864L851.943 654.979L855.312 658.902L850.211 659.752L847.521 664.169L845.135 659.58L840.104 658.386L843.731 654.7L843.312 649.546L847.938 651.856L852.711 649.864Z" fill="white"/>
<path d="M514.854 691.444L516.705 695.997L520.78 698.746L517.022 701.914L515.667 706.639L511.493 704.043L506.58 704.215L507.759 699.443L506.077 694.824L510.98 694.47L514.854 691.444Z" fill="white"/>
<path d="M955.994 645.963L959.228 642.23L959.68 637.311L964.23 639.233L969.048 638.143L968.626 643.064L971.152 647.309L966.341 648.428L963.084 652.142L960.533 647.913L955.994 645.963Z" fill="white"/>
<path d="M1123.35 598.785L1117.76 598.993L1115.64 604.172L1113.72 598.919L1108.14 598.505L1112.54 595.05L1111.21 589.616L1115.85 592.734L1120.61 589.789L1119.08 595.171L1123.35 598.785Z" fill="white"/>
<path d="M1394.79 694.173L1397.99 697.772L1402.4 699.701L1399.97 703.855L1399.49 708.646L1394.79 707.613L1390.09 708.646L1389.62 703.855L1387.18 699.701L1391.59 697.772L1394.79 694.173Z" fill="white"/>
<path d="M1112.71 805.864L1111.94 810.979L1115.31 814.902L1110.21 815.752L1107.52 820.169L1105.14 815.58L1100.1 814.386L1103.73 810.7L1103.31 805.546L1107.94 807.856L1112.71 805.864Z" fill="white"/>
<path d="M774.854 847.444L776.705 851.997L780.78 854.746L777.022 857.914L775.667 862.639L771.493 860.043L766.58 860.215L767.759 855.443L766.077 850.824L770.98 850.47L774.854 847.444Z" fill="white"/>
<path d="M120.353 41.7853L114.762 41.9933L112.644 47.1721L110.719 41.9188L105.139 41.5051L109.54 38.0504L108.209 32.6158L112.855 35.7341L117.612 32.789L116.082 38.1709L120.353 41.7853Z" fill="white"/>
<path d="M391.792 137.173L394.989 140.772L399.4 142.701L396.965 146.855L396.494 151.646L391.792 150.613L387.089 151.646L386.618 146.855L384.183 142.701L388.594 140.772L391.792 137.173Z" fill="white"/>
<path d="M109.711 248.864L108.943 253.979L112.312 257.902L107.211 258.752L104.52 263.169L102.135 258.58L97.1037 257.386L100.731 253.7L100.311 248.546L104.938 250.856L109.711 248.864Z" fill="white"/>
<path d="M740.994 75.963L744.228 72.2295L744.68 67.3108L749.23 69.2329L754.048 68.1425L753.626 73.0639L756.152 77.3088L751.341 78.4283L748.084 82.1421L745.533 77.9126L740.994 75.963Z" fill="white"/>
<path d="M908.353 28.7853L902.762 28.9933L900.644 34.1721L898.719 28.9188L893.139 28.5051L897.54 25.0504L896.209 19.6158L900.855 22.7341L905.612 19.789L904.082 25.1709L908.353 28.7853Z" fill="white"/>
<path d="M1179.79 124.173L1182.99 127.772L1187.4 129.701L1184.97 133.855L1184.49 138.646L1179.79 137.613L1175.09 138.646L1174.62 133.855L1172.18 129.701L1176.59 127.772L1179.79 124.173Z" fill="white"/>
<path d="M1226.51 613.948L1230.8 611.504L1232.86 607.016L1236.51 610.343L1241.42 610.918L1239.38 615.418L1240.35 620.262L1235.44 619.716L1231.14 622.135L1230.14 617.297L1226.51 613.948Z" fill="white"/>
<path d="M1400.03 625.159L1394.68 623.494L1390.96 627.673L1390.9 622.078L1385.77 619.831L1391.07 618.038L1391.63 612.47L1394.97 616.957L1400.43 615.763L1397.2 620.329L1400.03 625.159Z" fill="white"/>
<path d="M1321.07 816.891L1318.65 821.458L1320.52 826.279L1315.42 825.384L1311.42 828.653L1310.69 823.532L1306.35 820.731L1310.99 818.462L1312.31 813.462L1315.91 817.181L1321.07 816.891Z" fill="white"/>
<path d="M988.637 743.658L988.867 748.568L991.795 752.517L987.197 754.253L984.347 758.258L981.274 754.421L976.584 752.948L979.284 748.84L979.236 743.925L983.977 745.223L988.637 743.658Z" fill="white"/>
<path d="M1345.71 80.8644L1344.94 85.9786L1348.31 89.9021L1343.21 90.7525L1340.52 95.1688L1338.14 90.5803L1333.1 89.3862L1336.73 85.7L1336.31 80.5456L1340.94 82.8559L1345.71 80.8644Z" fill="white"/>
<path d="M1007.85 122.444L1009.71 126.997L1013.78 129.746L1010.02 132.914L1008.67 137.639L1004.49 135.043L999.58 135.215L1000.76 130.443L999.078 125.824L1003.98 125.47L1007.85 122.444Z" fill="white"/>
<path d="M1298.35 224.785L1292.76 224.993L1290.64 230.172L1288.72 224.919L1283.14 224.505L1287.54 221.05L1286.21 215.616L1290.85 218.734L1295.61 215.789L1294.08 221.171L1298.35 224.785Z" fill="white"/>
<path d="M1287.71 431.864L1286.94 436.979L1290.31 440.902L1285.21 441.752L1282.52 446.169L1280.14 441.58L1275.1 440.386L1278.73 436.7L1278.31 431.546L1282.94 433.856L1287.71 431.864Z" fill="white"/>
<path d="M949.854 473.444L951.705 477.997L955.78 480.746L952.022 483.914L950.667 488.639L946.493 486.043L941.58 486.215L942.759 481.443L941.078 476.824L945.98 476.47L949.854 473.444Z" fill="white"/>
<path d="M405.711 60.8644L404.943 65.9785L408.312 69.9021L403.211 70.7525L400.52 75.1688L398.135 70.5803L393.104 69.3862L396.731 65.7L396.311 60.5456L400.938 62.8559L405.711 60.8644Z" fill="white"/>
<path d="M67.8537 102.444L69.705 106.997L73.7802 109.746L70.0216 112.914L68.6669 117.639L64.4926 115.043L59.5801 115.215L60.7589 110.443L59.0775 105.824L63.9803 105.47L67.8537 102.444Z" fill="white"/>
<path d="M129.994 855.963L133.228 852.23L133.68 847.311L138.23 849.233L143.048 848.143L142.626 853.064L145.152 857.309L140.341 858.428L137.084 862.142L134.533 857.913L129.994 855.963Z" fill="white"/>
<path d="M297.353 808.785L291.762 808.993L289.644 814.172L287.719 808.919L282.139 808.505L286.54 805.05L285.209 799.616L289.855 802.734L294.612 799.789L293.082 805.171L297.353 808.785Z" fill="white"/>
<path d="M525.994 845.963L529.228 842.23L529.68 837.311L534.23 839.233L539.048 838.143L538.626 843.064L541.152 847.309L536.341 848.428L533.084 852.142L530.533 847.913L525.994 845.963Z" fill="white"/>
<path d="M693.353 798.785L687.762 798.993L685.644 804.172L683.719 798.919L678.139 798.505L682.54 795.05L681.209 789.616L685.855 792.734L690.612 789.789L689.082 795.171L693.353 798.785Z" fill="white"/>
<path d="M964.792 894.173L967.989 897.772L972.4 899.701L969.965 903.855L969.494 908.646L964.792 907.613L960.089 908.646L959.618 903.855L957.183 899.701L961.594 897.772L964.792 894.173Z" fill="white"/>
<path d="M666.203 344.79L669.437 341.056L669.889 336.137L674.439 338.059L679.256 336.969L678.834 341.89L681.36 346.135L676.549 347.255L673.292 350.969L670.741 346.739L666.203 344.79Z" fill="white"/>
<path d="M621.79 229.376L625.024 225.643L625.475 220.724L630.025 222.646L634.843 221.556L634.421 226.477L636.947 230.722L632.136 231.842L628.879 235.555L626.328 231.326L621.79 229.376Z" fill="white"/>
<path d="M839.735 320.785L834.144 320.993L832.026 326.172L830.101 320.919L824.521 320.505L828.922 317.05L827.591 311.616L832.237 314.734L836.994 311.789L835.464 317.171L839.735 320.785Z" fill="white"/>
<path d="M1105 393L1108.2 396.599L1112.61 398.528L1110.17 402.681L1109.7 407.472L1105 406.44L1100.3 407.472L1099.83 402.681L1097.39 398.528L1101.8 396.599L1105 393Z" fill="white"/>
<path d="M686 132L689.198 135.599L693.608 137.528L691.174 141.681L690.702 146.472L686 145.44L681.298 146.472L680.826 141.681L678.392 137.528L682.802 135.599L686 132Z" fill="white"/>
<path d="M429.711 385.864L428.943 390.979L432.312 394.902L427.211 395.752L424.52 400.169L422.135 395.58L417.104 394.386L420.731 390.7L420.312 385.546L424.938 387.856L429.711 385.864Z" fill="white"/>
<path d="M551.735 342.785L546.144 342.993L544.026 348.172L542.101 342.919L536.521 342.505L540.922 339.05L539.591 333.616L544.237 336.734L548.994 333.789L547.464 339.171L551.735 342.785Z" fill="white"/>
<path d="M475.735 226.785L470.144 226.993L468.026 232.172L466.101 226.919L460.521 226.505L464.922 223.05L463.591 217.616L468.237 220.734L472.994 217.789L471.464 223.171L475.735 226.785Z" fill="white"/>
<path d="M725.792 394.173L728.989 397.772L733.4 399.701L730.965 403.855L730.494 408.646L725.792 407.613L721.089 408.646L720.618 403.855L718.183 399.701L722.594 397.772L725.792 394.173Z" fill="white"/>
<path d="M863.353 442.785L857.762 442.993L855.644 448.172L853.719 442.919L848.139 442.505L852.54 439.05L851.209 433.616L855.855 436.734L860.612 433.789L859.082 439.171L863.353 442.785Z" fill="white"/>
<path d="M914.147 213.919L913.379 219.033L916.748 222.957L911.647 223.807L908.957 228.223L906.572 223.635L901.54 222.441L905.167 218.755L904.748 213.6L909.374 215.91L914.147 213.919Z" fill="white"/>
<path d="M1130.99 271.963L1134.23 268.23L1134.68 263.311L1139.23 265.233L1144.05 264.143L1143.63 269.064L1146.15 273.309L1141.34 274.428L1138.08 278.142L1135.53 273.913L1130.99 271.963Z" fill="white"/>
</g>
<defs>
<clipPath id="clip0">
<rect width="1440" height="900" fill="white"/>
</clipPath>
</defs>
</svg>
